<svg width="13" height="17" viewBox="0 0 13 17" fill="none" xmlns="http://www.w3.org/2000/svg">
<path d="M0.884382 16.6172V15.053L7.44029 8.72709C8.02304 8.17502 8.45243 7.69195 8.72847 7.27789C9.01984 6.8485 9.21154 6.45745 9.30355 6.10473C9.4109 5.73668 9.46457 5.38396 9.46457 5.04658C9.46457 4.21847 9.1732 3.56671 8.59045 3.09131C8.0077 2.61591 7.15659 2.37821 6.0371 2.37821C5.17831 2.37821 4.40387 2.5239 3.71377 2.81527C3.02368 3.09131 2.4256 3.52837 1.91953 4.12645L0.355309 2.76927C0.968727 1.98716 1.78917 1.38908 2.81665 0.975019C3.85946 0.545626 5.00195 0.33093 6.24413 0.33093C7.36361 0.33093 8.33742 0.514955 9.16553 0.883006C9.99365 1.23572 10.6301 1.74946 11.0748 2.42422C11.5349 3.09898 11.7649 3.89642 11.7649 4.81655C11.7649 5.33796 11.6959 5.85169 11.5579 6.35776C11.4198 6.86383 11.1591 7.40058 10.7758 7.96799C10.3924 8.5354 9.84029 9.17182 9.11952 9.87725L3.27671 15.513L2.72464 14.6159H12.455V16.6172H0.884382Z" fill="black"/>
</svg>
