<svg width="13" height="17" viewBox="0 0 13 17" fill="none" xmlns="http://www.w3.org/2000/svg">
<path d="M6.82768 16.8325C5.69286 16.8325 4.5887 16.6561 3.51522 16.3034C2.45707 15.9507 1.59062 15.4753 0.915861 14.8772L1.97401 13.0599C2.51075 13.566 3.20851 13.9801 4.0673 14.3021C4.92608 14.6242 5.84621 14.7852 6.82768 14.7852C8.02385 14.7852 8.95164 14.5321 9.61107 14.0261C10.2858 13.5047 10.6232 12.8069 10.6232 11.9328C10.6232 11.0893 10.3012 10.4146 9.65707 9.9085C9.02832 9.3871 8.02385 9.12639 6.64366 9.12639H5.35548V7.51617L10.1401 1.62735L10.4622 2.54748H1.65196V0.546204H12.2794V2.11042L7.51778 7.97624L6.32161 7.26314H7.08072C9.02832 7.26314 10.4852 7.7002 11.4513 8.57432C12.4328 9.44844 12.9235 10.5603 12.9235 11.9098C12.9235 12.8146 12.7012 13.6427 12.2564 14.3941C11.8117 15.1456 11.1369 15.7436 10.2322 16.1884C9.3427 16.6178 8.20787 16.8325 6.82768 16.8325Z" fill="black"/>
</svg>
