<svg width="16" height="15" viewBox="0 0 16 15" fill="none" xmlns="http://www.w3.org/2000/svg">
<path d="M13.0511 6.55307C13.4627 6.55307 13.7964 6.88675 13.7964 7.29836C13.7964 7.70998 13.4627 8.04366 13.0511 8.04366H1.21771C0.806092 8.04366 0.472412 7.70998 0.472412 7.29836C0.472412 6.88675 0.806091 6.55307 1.21771 6.55307L13.0511 6.55307ZM10.1146 0.408203C10.363 0.408203 10.5956 0.529835 10.7372 0.733794L14.8924 6.71513C15.1299 7.05692 15.1308 7.51003 14.8948 7.8528L10.7376 13.8899C10.5958 14.0959 10.3617 14.2189 10.1115 14.2189C9.50329 14.2189 9.14134 13.5402 9.48026 13.0351L12.9646 7.84283C13.1916 7.50455 13.1907 7.06237 12.9623 6.72501L9.48682 1.59134C9.146 1.0879 9.50665 0.408203 10.1146 0.408203Z" fill="black"/>
</svg>
