<svg width="41" height="13" viewBox="0 0 41 13" fill="none" xmlns="http://www.w3.org/2000/svg">
<path d="M38.8211 5.87897C39.1573 5.87897 39.4297 6.15146 39.4297 6.48759C39.4297 6.82372 39.1573 7.09621 38.8211 7.09621H1.39378C1.05764 7.09621 0.785156 6.82372 0.785156 6.48759C0.785156 6.15146 1.05764 5.87897 1.39378 5.87897H38.8211ZM36.1205 0.860962C36.3235 0.860962 36.515 0.954941 36.6392 1.11547L40.3139 5.866C40.5917 6.22505 40.5927 6.72611 40.3165 7.08634L36.6425 11.878C36.5163 12.0426 36.3207 12.1391 36.1133 12.1391C35.5644 12.1391 35.2505 11.5128 35.5791 11.0731L38.567 7.07442C38.8325 6.71913 38.8323 6.23141 38.5664 5.8764L35.5957 1.90972C35.2719 1.4774 35.5804 0.860962 36.1205 0.860962Z" fill="#242424" stroke="#242424" stroke-width="0.5"/>
</svg>
