<svg width="51" height="12" viewBox="0 0 51 12" fill="none" xmlns="http://www.w3.org/2000/svg">
<path d="M48.609 5.38133C48.9369 5.38133 49.2027 5.6471 49.2027 5.97494C49.2027 6.30279 48.9369 6.56856 48.609 6.56856H1.12877C0.800926 6.56856 0.535156 6.30279 0.535156 5.97494C0.535156 5.6471 0.800925 5.38133 1.12877 5.38133H48.609ZM45.9518 0.487061C46.1499 0.487061 46.3369 0.57839 46.4587 0.734602L50.0578 5.35065C50.3387 5.71087 50.3398 6.21562 50.0605 6.57704L46.462 11.2331C46.3382 11.3933 46.1472 11.4871 45.9448 11.4871C45.4055 11.4871 45.0982 10.8709 45.4226 10.4401L48.3411 6.56512C48.6096 6.20859 48.6094 5.71727 48.3405 5.36102L45.4388 1.51709C45.1191 1.0936 45.4212 0.487061 45.9518 0.487061Z" fill="#242424" stroke="#242424" stroke-width="0.3"/>
</svg>
