<svg width="51" height="50" viewBox="0 0 51 50" fill="none" xmlns="http://www.w3.org/2000/svg">
<path d="M17.6747 35C17.3521 35 17.0493 34.8444 16.8616 34.582L10.4499 25.6235C10.2017 25.2767 10.2007 24.8107 10.4475 24.4629L16.8618 15.4214C17.0493 15.1571 17.3533 15 17.6774 15H18.0222C18.8285 15 19.3033 15.9054 18.8447 16.5687L13.3814 24.471C13.1433 24.8154 13.145 25.2716 13.3855 25.6143L18.8692 33.4254C19.3344 34.0881 18.8604 35 18.0508 35H17.6747ZM13.1683 26.1013C12.616 26.1013 12.1683 25.6536 12.1683 25.1013V24.9427C12.1683 24.3904 12.616 23.9427 13.1683 23.9427H36.8113C37.3635 23.9427 37.8113 24.3904 37.8113 24.9427V25.1013C37.8113 25.6536 37.3635 26.1013 36.8113 26.1013H13.1683ZM32.0649 35C31.2553 35 30.7813 34.0881 31.2465 33.4254L36.7289 25.6161C36.9701 25.2725 36.971 24.8149 36.7312 24.4703L31.2344 16.5712C30.773 15.9082 31.2475 15 32.0552 15H32.3929C32.717 15 33.021 15.1571 33.2085 15.4214L39.6229 24.4629C39.8696 24.8107 39.8686 25.2767 39.6204 25.6235L33.2088 34.582C33.021 34.8444 32.7182 35 32.3956 35H32.0649Z" fill="#242424"/>
<circle cx="25.0352" cy="25" r="24.5" stroke="#242424"/>
</svg>
