<svg width="41" height="13" viewBox="0 0 41 13" fill="none" xmlns="http://www.w3.org/2000/svg">
<path d="M38.8216 5.6563C39.1577 5.6563 39.4302 5.92879 39.4302 6.26492C39.4302 6.60105 39.1577 6.87354 38.8216 6.87354H1.39426C1.05813 6.87354 0.785645 6.60105 0.785645 6.26492C0.785645 5.92879 1.05813 5.6563 1.39426 5.6563H38.8216ZM36.121 0.63829C36.324 0.63829 36.5155 0.73227 36.6397 0.892799L40.3144 5.64333C40.5922 6.00237 40.5932 6.50344 40.317 6.86366L36.643 11.6553C36.5168 11.8199 36.3212 11.9164 36.1138 11.9164C35.5648 11.9164 35.251 11.2902 35.5796 10.8504L38.5675 6.85175C38.833 6.49645 38.8328 6.00874 38.5669 5.65373L35.5962 1.68705C35.2724 1.25473 35.5809 0.63829 36.121 0.63829Z" fill="#242424" stroke="#242424" stroke-width="0.5"/>
</svg>
