<svg width="18" height="17" viewBox="0 0 18 17" fill="none" xmlns="http://www.w3.org/2000/svg">
<path d="M1.77871 16.0312C1.33127 16.0312 0.95018 15.8739 0.63543 15.5591C0.320697 15.2444 0.16333 14.8633 0.16333 14.4159V1.64662C0.16333 1.19919 0.320697 0.818099 0.63543 0.503349C0.95018 0.188616 1.33127 0.03125 1.77871 0.03125H14.548C14.9954 0.03125 15.3765 0.188616 15.6912 0.503349C16.006 0.818099 16.1633 1.19919 16.1633 1.64662V4.58893H15.1633V1.64662C15.1633 1.46714 15.1056 1.31971 14.9903 1.20432C14.8749 1.08894 14.7274 1.03125 14.548 1.03125H1.77871C1.59922 1.03125 1.45179 1.08894 1.33641 1.20432C1.22102 1.31971 1.16333 1.46714 1.16333 1.64662V14.4159C1.16333 14.5954 1.22102 14.7428 1.33641 14.8582C1.45179 14.9736 1.59922 15.0312 1.77871 15.0312H14.548C14.7274 15.0312 14.8749 14.9736 14.9903 14.8582C15.1056 14.7428 15.1633 14.5954 15.1633 14.4159V11.4736H16.1633V14.4159C16.1633 14.8633 16.006 15.2444 15.6912 15.5591C15.3765 15.8739 14.9954 16.0312 14.548 16.0312H1.77871ZM9.7787 12.0312C9.33127 12.0312 8.95018 11.8739 8.63543 11.5591C8.3207 11.2444 8.16333 10.8633 8.16333 10.4159V5.64663C8.16333 5.19919 8.3207 4.8181 8.63543 4.50335C8.95018 4.18862 9.33127 4.03125 9.7787 4.03125H15.548C15.9954 4.03125 16.3765 4.18862 16.6912 4.50335C17.006 4.8181 17.1633 5.19919 17.1633 5.64663V10.4159C17.1633 10.8633 17.006 11.2444 16.6912 11.5591C16.3765 11.8739 15.9954 12.0312 15.548 12.0312H9.7787ZM15.548 11.0312C15.7274 11.0312 15.8749 10.9736 15.9903 10.8582C16.1056 10.7428 16.1633 10.5954 16.1633 10.4159V5.64663C16.1633 5.46714 16.1056 5.31971 15.9903 5.20432C15.8749 5.08894 15.7274 5.03125 15.548 5.03125H9.7787C9.59922 5.03125 9.45179 5.08894 9.3364 5.20432C9.22102 5.31971 9.16333 5.46714 9.16333 5.64663V10.4159C9.16333 10.5954 9.22102 10.7428 9.3364 10.8582C9.45179 10.9736 9.59922 11.0312 9.7787 11.0312H15.548ZM12.1633 9.53125C12.58 9.53125 12.9342 9.38542 13.2258 9.09375C13.5175 8.80208 13.6633 8.44792 13.6633 8.03125C13.6633 7.61458 13.5175 7.26042 13.2258 6.96875C12.9342 6.67708 12.58 6.53125 12.1633 6.53125C11.7467 6.53125 11.3925 6.67708 11.1008 6.96875C10.8092 7.26042 10.6633 7.61458 10.6633 8.03125C10.6633 8.44792 10.8092 8.80208 11.1008 9.09375C11.3925 9.38542 11.7467 9.53125 12.1633 9.53125Z" fill="#1C1B1F"/>
</svg>
