<svg width="18" height="17" viewBox="0 0 18 17" fill="none" xmlns="http://www.w3.org/2000/svg">
<path d="M9.54688 10.5H10.5469V7.5H13.5469V6.5H10.5469V3.5H9.54688V6.5H6.54688V7.5H9.54688V10.5ZM4.66225 14C4.202 14 3.81771 13.8458 3.50938 13.5375C3.20104 13.2292 3.04688 12.8449 3.04688 12.3846V1.61537C3.04688 1.15512 3.20104 0.770833 3.50938 0.4625C3.81771 0.154167 4.202 0 4.66225 0H15.4315C15.8918 0 16.276 0.154167 16.5844 0.4625C16.8927 0.770833 17.0469 1.15512 17.0469 1.61537V12.3846C17.0469 12.8449 16.8927 13.2292 16.5844 13.5375C16.276 13.8458 15.8918 14 15.4315 14H4.66225ZM4.66225 13H15.4315C15.5854 13 15.7264 12.9359 15.8546 12.8077C15.9828 12.6795 16.0469 12.5385 16.0469 12.3846V1.61537C16.0469 1.46154 15.9828 1.32052 15.8546 1.1923C15.7264 1.0641 15.5854 1 15.4315 1H4.66225C4.50842 1 4.36739 1.0641 4.23917 1.1923C4.11097 1.32052 4.04688 1.46154 4.04688 1.61537V12.3846C4.04688 12.5385 4.11097 12.6795 4.23917 12.8077C4.36739 12.9359 4.50842 13 4.66225 13ZM1.66225 17C1.202 17 0.817708 16.8458 0.509375 16.5375C0.201042 16.2292 0.046875 15.8449 0.046875 15.3846V3.61537H1.04688V15.3846C1.04688 15.5385 1.11098 15.6795 1.23918 15.8077C1.36738 15.9359 1.5084 16 1.66225 16H13.4315V17H1.66225Z" fill="#242424"/>
</svg>
