<svg width="17" height="18" viewBox="0 0 17 18" fill="none" xmlns="http://www.w3.org/2000/svg">
<path d="M9.49316 10.5312H10.4932V7.53125H13.4932V6.53125H10.4932V3.53125H9.49316V6.53125H6.49316V7.53125H9.49316V10.5312ZM4.60854 14.0312C4.14829 14.0312 3.764 13.8771 3.45566 13.5688C3.14733 13.2604 2.99316 12.8761 2.99316 12.4159V1.64662C2.99316 1.18637 3.14733 0.802083 3.45566 0.49375C3.764 0.185417 4.14829 0.03125 4.60854 0.03125H15.3778C15.838 0.03125 16.2223 0.185417 16.5307 0.49375C16.839 0.802083 16.9932 1.18637 16.9932 1.64662V12.4159C16.9932 12.8761 16.839 13.2604 16.5307 13.5688C16.2223 13.8771 15.838 14.0312 15.3778 14.0312H4.60854ZM4.60854 13.0312H15.3778C15.5316 13.0312 15.6727 12.9671 15.8009 12.839C15.9291 12.7107 15.9932 12.5697 15.9932 12.4159V1.64662C15.9932 1.49279 15.9291 1.35177 15.8009 1.22355C15.6727 1.09535 15.5316 1.03125 15.3778 1.03125H4.60854C4.45471 1.03125 4.31368 1.09535 4.18546 1.22355C4.05726 1.35177 3.99316 1.49279 3.99316 1.64662V12.4159C3.99316 12.5697 4.05726 12.7107 4.18546 12.839C4.31368 12.9671 4.45471 13.0312 4.60854 13.0312ZM1.60854 17.0312C1.14829 17.0312 0.763997 16.8771 0.455664 16.5688C0.147331 16.2604 -0.00683594 15.8761 -0.00683594 15.4159V3.64662H0.993164V15.4159C0.993164 15.5697 1.05726 15.7108 1.18546 15.839C1.31366 15.9671 1.45469 16.0312 1.60854 16.0312H13.3778V17.0312H1.60854Z" fill="#1C1B1F"/>
</svg>
