<svg width="19" height="18" viewBox="0 0 19 18" fill="none" xmlns="http://www.w3.org/2000/svg">
<path d="M3.63965 10.9492H10.6396V9.94922H3.63965V10.9492ZM3.63965 7.94922H14.6396V6.94922H3.63965V7.94922ZM3.63965 4.94922H14.6396V3.94922H3.63965V4.94922ZM0.139648 17.5261V2.06459C0.139648 1.60434 0.293815 1.22005 0.602148 0.911719C0.910482 0.603385 1.29477 0.449219 1.75502 0.449219H16.5243C16.9845 0.449219 17.3688 0.603385 17.6771 0.911719C17.9855 1.22005 18.1396 1.60434 18.1396 2.06459V12.8338C18.1396 13.2941 17.9855 13.6784 17.6771 13.9867C17.3688 14.2951 16.9845 14.4492 16.5243 14.4492H3.21657L0.139648 17.5261ZM2.78965 13.4492H16.5243C16.6781 13.4492 16.8191 13.3851 16.9473 13.2569C17.0755 13.1287 17.1396 12.9877 17.1396 12.8338V2.06459C17.1396 1.91076 17.0755 1.76974 16.9473 1.64152C16.8191 1.51332 16.6781 1.44922 16.5243 1.44922H1.75502C1.60119 1.44922 1.46017 1.51332 1.33195 1.64152C1.20375 1.76974 1.13965 1.91076 1.13965 2.06459V15.0934L2.78965 13.4492Z" fill="#1C1B1F"/>
</svg>
