<svg width="19" height="19" viewBox="0 0 19 19" fill="none" xmlns="http://www.w3.org/2000/svg">
<path d="M12.8044 7.64663C13.1155 7.64663 13.3784 7.53775 13.5932 7.32C13.8079 7.10223 13.9153 6.83781 13.9153 6.52672C13.9153 6.21564 13.8064 5.95272 13.5886 5.73797C13.3709 5.52324 13.1064 5.41588 12.7954 5.41588C12.4843 5.41588 12.2214 5.52475 12.0066 5.7425C11.7919 5.96027 11.6845 6.22469 11.6845 6.53578C11.6845 6.84686 11.7934 7.10978 12.0111 7.32453C12.2289 7.53926 12.4933 7.64663 12.8044 7.64663ZM6.18901 7.64663C6.5001 7.64663 6.76301 7.53775 6.97776 7.32C7.19251 7.10223 7.29989 6.83781 7.29989 6.52672C7.29989 6.21564 7.191 5.95272 6.97324 5.73797C6.75547 5.52324 6.49105 5.41588 6.17996 5.41588C5.86888 5.41588 5.60596 5.52475 5.39121 5.7425C5.17648 5.96027 5.06911 6.22469 5.06911 6.53578C5.06911 6.84686 5.17799 7.10978 5.39574 7.32453C5.6135 7.53926 5.87793 7.64663 6.18901 7.64663ZM9.49219 13.9159C10.446 13.9159 11.3246 13.6527 12.1278 13.1264C12.931 12.6002 13.5345 11.9018 13.9383 11.0312H12.9422C12.5755 11.6479 12.088 12.1354 11.4797 12.4938C10.8714 12.8521 10.2089 13.0312 9.49219 13.0312C8.77552 13.0312 8.11302 12.8521 7.50469 12.4938C6.89635 12.1354 6.40885 11.6479 6.04219 11.0312H5.04604C5.44987 11.9018 6.0534 12.6002 6.85661 13.1264C7.65981 13.6527 8.53834 13.9159 9.49219 13.9159ZM9.49554 18.0312C8.25099 18.0312 7.0809 17.7951 5.98529 17.3228C4.88967 16.8504 3.93663 16.2094 3.12616 15.3997C2.31571 14.59 1.6741 13.6379 1.20134 12.5433C0.728571 11.4487 0.492188 10.2791 0.492188 9.0346C0.492188 7.79005 0.728346 6.61997 1.20066 5.52435C1.673 4.42873 2.31401 3.47569 3.12371 2.66523C3.93341 1.85478 4.88555 1.21317 5.98014 0.740401C7.07474 0.267634 8.2443 0.03125 9.48884 0.03125C10.7334 0.03125 11.9035 0.267408 12.9991 0.739725C14.0947 1.21206 15.0477 1.85307 15.8582 2.66277C16.6687 3.47247 17.3103 4.42462 17.783 5.5192C18.2558 6.6138 18.4922 7.78337 18.4922 9.0279C18.4922 10.2724 18.256 11.4425 17.7837 12.5381C17.3114 13.6338 16.6704 14.5868 15.8607 15.3973C15.051 16.2077 14.0988 16.8493 13.0042 17.3221C11.9096 17.7949 10.7401 18.0312 9.49554 18.0312ZM9.49219 17.0312C11.7255 17.0312 13.6172 16.2563 15.1672 14.7063C16.7172 13.1562 17.4922 11.2646 17.4922 9.03125C17.4922 6.79792 16.7172 4.90625 15.1672 3.35625C13.6172 1.80625 11.7255 1.03125 9.49219 1.03125C7.25885 1.03125 5.36719 1.80625 3.81719 3.35625C2.26719 4.90625 1.49219 6.79792 1.49219 9.03125C1.49219 11.2646 2.26719 13.1562 3.81719 14.7063C5.36719 16.2563 7.25885 17.0312 9.49219 17.0312Z" fill="#1C1B1F"/>
</svg>
