<svg width="16" height="16" viewBox="0 0 16 16" fill="none" xmlns="http://www.w3.org/2000/svg">
<path d="M4 4.80775C4.21917 4.80775 4.40858 4.72792 4.56825 4.56825C4.72792 4.40858 4.80775 4.21917 4.80775 4C4.80775 3.78083 4.72792 3.59142 4.56825 3.43175C4.40858 3.27208 4.21917 3.19225 4 3.19225C3.78083 3.19225 3.59142 3.27208 3.43175 3.43175C3.27208 3.59142 3.19225 3.78083 3.19225 4C3.19225 4.21917 3.27208 4.40858 3.43175 4.56825C3.59142 4.72792 3.78083 4.80775 4 4.80775ZM4 8.80775C4.21917 8.80775 4.40858 8.72792 4.56825 8.56825C4.72792 8.40858 4.80775 8.21917 4.80775 8C4.80775 7.78083 4.72792 7.59142 4.56825 7.43175C4.40858 7.27208 4.21917 7.19225 4 7.19225C3.78083 7.19225 3.59142 7.27208 3.43175 7.43175C3.27208 7.59142 3.19225 7.78083 3.19225 8C3.19225 8.21917 3.27208 8.40858 3.43175 8.56825C3.59142 8.72792 3.78083 8.80775 4 8.80775ZM4 12.8077C4.21917 12.8077 4.40858 12.7279 4.56825 12.5683C4.72792 12.4086 4.80775 12.2192 4.80775 12C4.80775 11.7808 4.72792 11.5914 4.56825 11.4318C4.40858 11.2721 4.21917 11.1923 4 11.1923C3.78083 11.1923 3.59142 11.2721 3.43175 11.4318C3.27208 11.5914 3.19225 11.7808 3.19225 12C3.19225 12.2192 3.27208 12.4086 3.43175 12.5683C3.59142 12.7279 3.78083 12.8077 4 12.8077ZM1.6155 16C1.15517 16 0.770833 15.8458 0.4625 15.5375C0.154167 15.2292 0 14.8448 0 14.3845V1.6155C0 1.15517 0.154167 0.770833 0.4625 0.4625C0.770833 0.154167 1.15517 0 1.6155 0H11.577L16 4.423V14.3845C16 14.8448 15.8458 15.2292 15.5375 15.5375C15.2292 15.8458 14.8448 16 14.3845 16H1.6155ZM1.6155 15H14.3845C14.564 15 14.7115 14.9423 14.827 14.827C14.9423 14.7115 15 14.564 15 14.3845V5H11V1H1.6155C1.436 1 1.2885 1.05767 1.173 1.173C1.05767 1.2885 1 1.436 1 1.6155V14.3845C1 14.564 1.05767 14.7115 1.173 14.827C1.2885 14.9423 1.436 15 1.6155 15Z" fill="#242424"/>
</svg>
