<svg width="15" height="15" viewBox="0 0 15 15" fill="none" xmlns="http://www.w3.org/2000/svg">
<path d="M8.10806 12.5787C8.10806 12.9903 7.77438 13.324 7.36277 13.324C6.95116 13.324 6.61748 12.9903 6.61748 12.5787L6.61748 0.745293C6.61748 0.333679 6.95116 -3.19171e-07 7.36277 -3.01178e-07C7.77438 -2.83186e-07 8.10806 0.333679 8.10806 0.745293L8.10806 12.5787ZM14.2529 9.6422C14.2529 9.89054 14.1313 10.1231 13.9273 10.2648L7.94601 14.42C7.60421 14.6574 7.1511 14.6584 6.80833 14.4223L0.771257 10.2652C0.565239 10.1234 0.442191 9.88924 0.442191 9.6391C0.442191 9.03088 1.12097 8.66893 1.62602 9.00785L6.8183 12.4921C7.15659 12.7191 7.59877 12.7182 7.93612 12.4899L13.0698 9.01441C13.5732 8.67358 14.2529 9.03424 14.2529 9.6422Z" fill="#242424"/>
</svg>
