<svg width="41" height="40" viewBox="0 0 41 40" fill="none" xmlns="http://www.w3.org/2000/svg">
<g filter="url(#filter0_b_4700_25023)">
<circle cx="20.0469" cy="20" r="19.5" stroke="#242424"/>
</g>
<mask id="mask0_4700_25023" style="mask-type:alpha" maskUnits="userSpaceOnUse" x="8" y="8" width="25" height="24">
<rect x="8.04688" y="8" width="24" height="24" fill="#D9D9D9"/>
</mask>
<g mask="url(#mask0_4700_25023)">
<path d="M25.3749 19.3238C25.7922 19.3238 26.1304 19.6621 26.1304 20.0793C26.1304 20.4966 25.7922 20.8348 25.3749 20.8348H13.3952C12.9779 20.8348 12.6396 20.4966 12.6396 20.0793C12.6396 19.6621 12.9779 19.3238 13.3952 19.3238H25.3749ZM22.4021 13.0947C22.6538 13.0947 22.8895 13.2181 23.033 13.4249L27.2458 19.4963C27.4828 19.8379 27.4838 20.2905 27.2482 20.6331L23.0334 26.7611C22.8897 26.9699 22.6525 27.0947 22.399 27.0947C21.7831 27.0947 21.4164 26.4076 21.7593 25.896L25.2936 20.6231C25.5202 20.285 25.5193 19.8433 25.2913 19.5062L21.766 14.2928C21.4211 13.7828 21.7865 13.0947 22.4021 13.0947Z" fill="#242424"/>
</g>
<defs>
<filter id="filter0_b_4700_25023" x="-14.9531" y="-15" width="70" height="70" filterUnits="userSpaceOnUse" color-interpolation-filters="sRGB">
<feFlood flood-opacity="0" result="BackgroundImageFix"/>
<feGaussianBlur in="BackgroundImageFix" stdDeviation="7.5"/>
<feComposite in2="SourceAlpha" operator="in" result="effect1_backgroundBlur_4700_25023"/>
<feBlend mode="normal" in="SourceGraphic" in2="effect1_backgroundBlur_4700_25023" result="shape"/>
</filter>
</defs>
</svg>
