<?xml version="1.0" encoding="UTF-8" standalone="no"?>
<svg
   width="58"
   height="59"
   viewBox="0 0 58 59"
   fill="none"
   version="1.1"
   id="svg1"
   sodipodi:docname="ellipse_arr.svg"
   inkscape:version="1.3.2 (091e20e, 2023-11-25, custom)"
   xmlns:inkscape="http://www.inkscape.org/namespaces/inkscape"
   xmlns:sodipodi="http://sodipodi.sourceforge.net/DTD/sodipodi-0.dtd"
   xmlns="http://www.w3.org/2000/svg"
   xmlns:svg="http://www.w3.org/2000/svg">
  <sodipodi:namedview
     id="namedview1"
     pagecolor="#ffffff"
     bordercolor="#000000"
     borderopacity="0.25"
     inkscape:showpageshadow="2"
     inkscape:pageopacity="0.0"
     inkscape:pagecheckerboard="0"
     inkscape:deskcolor="#d1d1d1"
     showgrid="false"
     inkscape:zoom="13.338983"
     inkscape:rotation="-90"
     inkscape:cx="28.975222"
     inkscape:cy="29.462516"
     inkscape:window-width="1920"
     inkscape:window-height="1001"
     inkscape:window-x="-9"
     inkscape:window-y="-9"
     inkscape:window-maximized="1"
     inkscape:current-layer="svg1" />
  <g
     filter="url(#filter0_b_1_1247)"
     id="g1">
    <circle
       cx="29"
       cy="29.8491"
       r="28.5"
       stroke="black"
       id="circle1" />
  </g>
  <defs
     id="defs1">
    <filter
       id="filter0_b_1_1247"
       x="-15"
       y="-14.1509"
       width="88"
       height="88"
       filterUnits="userSpaceOnUse"
       color-interpolation-filters="sRGB">
      <feFlood
         flood-opacity="0"
         result="BackgroundImageFix"
         id="feFlood1" />
      <feGaussianBlur
         in="BackgroundImageFix"
         stdDeviation="7.5"
         id="feGaussianBlur1" />
      <feComposite
         in2="SourceAlpha"
         operator="in"
         result="effect1_backgroundBlur_1_1247"
         id="feComposite1" />
      <feBlend
         mode="normal"
         in="SourceGraphic"
         in2="effect1_backgroundBlur_1_1247"
         result="shape"
         id="feBlend1" />
    </filter>
  </defs>
  <path
     d="m 28.655622,49.803216 c 0,0.2575 -0.20874,0.4662 -0.46623,0.4662 -0.2575,0 -0.46624,-0.2087 -0.46624,-0.4662 V 10.982551 c 0,-0.257495 0.20874,-0.466236 0.46623,-0.466236 0.2575,0 0.46624,0.208741 0.46624,0.466236 z m 5.35504,-2.938 c 0,0.1634 -0.0791,0.3167 -0.2124,0.4112 l -4.99412,3.5442 c -0.34469,0.2447 -0.80595,0.2462 -1.15221,0.0038 l -5.067819,-3.5475 c -0.135385,-0.0948 -0.216015,-0.2496 -0.216015,-0.4149 0,-0.4076 0.456973,-0.6482 0.793024,-0.4175 l 4.49843,3.0875 c 0.34291,0.2354 0.79569,0.2339 1.13707,-0.0036 l 4.42184,-3.077 c 0.3343,-0.2326 0.7922,0.0066 0.7922,0.4138 z"
     fill="#000000"
     id="path1" />
</svg>
