<svg width="13" height="41" viewBox="0 0 13 41" fill="none" xmlns="http://www.w3.org/2000/svg">
<path d="M6.73186 39.5745C6.73186 39.832 6.52312 40.0407 6.26563 40.0407C6.00813 40.0407 5.79939 39.832 5.79939 39.5745L5.79939 0.753834C5.79939 0.496339 6.00813 0.287598 6.26562 0.287598C6.52312 0.287598 6.73186 0.496339 6.73186 0.753834L6.73186 39.5745ZM12.0869 36.6365C12.0869 36.7999 12.0078 36.9532 11.8745 37.0477L6.88038 40.5919C6.53569 40.8366 6.07443 40.8381 5.72817 40.5957L0.660351 37.0482C0.524966 36.9534 0.444336 36.7986 0.444336 36.6333C0.444336 36.2257 0.901309 35.9851 1.23736 36.2158L5.73579 39.3033C6.0787 39.5387 6.53148 39.5372 6.87286 39.2997L11.2947 36.2227C11.629 35.9901 12.0869 36.2293 12.0869 36.6365Z" fill="black"/>
</svg>
