<svg width="41" height="13" viewBox="0 0 41 13" fill="none" xmlns="http://www.w3.org/2000/svg">
<path d="M39.0367 5.65619C39.3728 5.65619 39.6453 5.92868 39.6453 6.26481C39.6453 6.60094 39.3728 6.87343 39.0367 6.87343H1.60935C1.27322 6.87343 1.00073 6.60094 1.00073 6.26481C1.00073 5.92868 1.27322 5.65619 1.60935 5.65619H39.0367ZM36.3361 0.638184C36.5391 0.638184 36.7306 0.732163 36.8548 0.892692L40.5295 5.64323C40.8073 6.00227 40.8083 6.50334 40.5321 6.86356L36.8581 11.6552C36.7319 11.8198 36.5363 11.9163 36.3289 11.9163C35.7799 11.9163 35.4661 11.2901 35.7947 10.8503L38.7826 6.85164C39.0481 6.49635 39.0478 6.00863 38.782 5.65362L35.8113 1.68694C35.4875 1.25462 35.796 0.638184 36.3361 0.638184Z" fill="#242424" stroke="#242424" stroke-width="0.5"/>
</svg>
