<svg width="32" height="44" viewBox="0 0 32 44" fill="none" xmlns="http://www.w3.org/2000/svg">
<path d="M22.2217 0.978071C23.2061 0.978071 24.0318 1.00983 24.7622 1.07334C25.5878 1.13685 26.4135 1.23212 27.1439 1.35914C27.906 1.48617 28.6046 1.64495 29.2715 1.83548C29.6843 1.96251 30.0337 2.05778 30.3195 2.15304V4.78879C29.335 4.53475 28.2871 4.2807 27.2391 4.09016C25.6196 3.80436 24.0318 3.67733 22.4757 3.67733C19.9987 3.67733 17.6488 4.05841 15.4894 4.85231C13.33 5.61445 11.4246 6.82118 9.7733 8.40898C8.1855 9.99678 6.8835 11.9657 5.96258 14.2838C5.04165 16.602 4.56531 19.3013 4.56531 22.3181C4.56531 25.3349 5.00989 28.0025 5.83555 30.2571C6.69296 32.5118 7.93145 34.4489 9.51925 35.9415C11.1388 37.4657 13.0759 38.5772 15.2671 39.2758C17.4582 40.0062 19.8717 40.3238 22.6027 40.3238C23.3966 40.3238 24.1588 40.292 24.9209 40.2285C25.7466 40.165 26.5722 40.038 27.3979 39.911C28.2235 39.7839 28.9857 39.6252 29.8113 39.4346C30.0972 39.3711 30.383 39.3076 30.6688 39.2123V41.7846C29.6526 42.1339 28.4776 42.4197 27.1439 42.642C25.6196 42.896 23.9682 43.0231 22.2217 43.0231C18.792 43.0231 15.7434 42.5467 13.1712 41.6258C10.599 40.7049 8.40778 39.3394 6.6612 37.6245C4.91462 35.9097 3.58087 33.7503 2.6917 31.2416C1.77077 28.7011 1.3262 25.7795 1.3262 22.5404C1.3262 19.3648 1.80254 16.4433 2.78698 13.7758C3.73966 11.14 5.13692 8.85357 6.91526 6.97996C8.72535 5.0746 10.9483 3.61382 13.4888 2.56587C16.0927 1.51792 19.0143 0.978071 22.2217 0.978071ZM22.2217 0.0253906C18.8555 0.0253906 15.8387 0.565243 13.1394 1.6767C10.4402 2.78816 8.15374 4.34421 6.24838 6.31308C4.37478 8.31371 2.91399 10.6954 1.8978 13.4582C0.881606 16.221 0.405273 19.2378 0.405273 22.5404C0.405273 25.8748 0.881616 28.8916 1.8343 31.5591C2.78698 34.1949 4.18424 36.4496 6.02609 38.2914C7.86794 40.1333 10.1544 41.5305 12.8854 42.515C15.6164 43.4994 18.7285 43.9757 22.2852 43.9757C24 43.9757 25.7148 43.8487 27.3661 43.5947C29.0175 43.3089 30.4465 42.9595 31.685 42.4832V37.9738C31.0816 38.1644 30.4147 38.3549 29.6526 38.5455C28.8904 38.7042 28.0965 38.863 27.3026 38.99C26.5087 39.1171 25.7148 39.2441 24.9209 39.2758C24.127 39.3394 23.3966 39.3711 22.6662 39.3711C20.094 39.3711 17.7441 39.0535 15.6164 38.3549C13.5205 37.688 11.7104 36.6401 10.2179 35.2428C8.72535 33.8456 7.58214 32.0672 6.75648 29.9396C5.93082 27.7802 5.54975 25.2714 5.54975 22.3499C5.54975 19.4283 5.99434 16.8561 6.88351 14.6649C7.77267 12.4738 8.94765 10.6001 10.4719 9.10761C11.9962 7.64684 13.7746 6.50362 15.8705 5.77323C17.9346 5.04284 20.1575 4.66177 22.5392 4.66177C24.0953 4.66177 25.6196 4.82055 27.1439 5.0746C28.6681 5.32865 30.0654 5.67796 31.3356 6.09079V1.51792C30.8593 1.29563 30.2559 1.1051 29.5891 0.914559C28.9222 0.724023 28.16 0.565243 27.3979 0.406463C26.604 0.279439 25.7783 0.184171 24.9209 0.0889027C24 0.0571466 23.1108 0.0253906 22.2217 0.0253906Z" fill="#242424"/>
</svg>
