<svg width="35" height="44" viewBox="0 0 35 44" fill="none" xmlns="http://www.w3.org/2000/svg">
<path d="M9.72025 1.78764C11.6574 1.78764 13.4357 1.85115 14.96 2.00993C16.6431 2.16871 18.1038 2.45452 19.3741 2.83559C21.724 3.50247 23.7882 4.42339 25.5665 5.59836C27.3131 6.77334 28.7739 8.1706 29.9171 9.7584C31.0603 11.378 31.9495 13.2198 32.5211 15.1887C33.0927 17.2846 33.3785 19.444 33.3785 21.7939C33.3785 24.2074 33.0927 26.4621 32.4893 28.4945C31.9177 30.5586 31.0286 32.4322 29.8853 34.0835C28.7421 35.7031 27.2496 37.1321 25.503 38.3388C23.7247 39.5456 21.6605 40.4982 19.3106 41.1334C17.8816 41.5462 16.389 41.8002 14.8965 41.959C13.3087 42.1178 11.5303 42.1813 9.65674 42.1813H1.01911V1.78764H9.72025ZM4.25823 39.4503H5.2109H9.14864C11.1175 39.4503 12.9594 39.3868 14.5789 39.228C16.1032 39.101 17.5958 38.8152 19.0883 38.3706C22.6132 37.2591 25.376 35.2902 27.3131 32.464C29.2185 29.6694 30.1711 26.081 30.1711 21.7939C30.1711 17.5386 29.2185 14.0137 27.3131 11.3462C25.4077 8.64694 22.645 6.70983 19.12 5.63012C17.7545 5.21729 16.2938 4.93149 14.5789 4.74095C12.9594 4.58217 11.1175 4.51866 9.14864 4.51866H5.2109H4.25823V5.47134V38.4659V39.4503ZM9.72025 0.834961H0.034668V43.1657H9.62499C11.5621 43.1657 13.3404 43.1022 14.96 42.9435C16.6113 42.7847 18.1356 42.4989 19.5646 42.086C22.0416 41.4192 24.201 40.403 26.0428 39.1327C27.8847 37.8625 29.4408 36.37 30.6792 34.6234C31.9177 32.8768 32.8386 30.9079 33.442 28.7485C34.0771 26.5891 34.3629 24.2709 34.3629 21.7939C34.3629 19.3487 34.0771 17.0623 33.4738 14.9346C32.8704 12.8387 31.9495 10.9334 30.7428 9.21855C29.536 7.53548 28.0117 6.04295 26.1381 4.80446C24.2963 3.56598 22.1369 2.58154 19.6599 1.91467C18.2626 1.50184 16.7066 1.24779 15.087 1.05725C13.404 0.898473 11.6256 0.834961 9.72025 0.834961ZM5.2109 38.4976V5.47134H9.14864C11.1175 5.47134 12.8959 5.53485 14.4837 5.69363C16.0715 5.85241 17.5005 6.10646 18.7707 6.51929C22.1051 7.56724 24.7091 9.34558 26.4874 11.8861C28.2975 14.4265 29.1867 17.7292 29.1867 21.7939C29.1867 25.9222 28.2975 29.2884 26.4874 31.9241C24.7091 34.5281 22.1051 36.4017 18.7707 37.4497C17.4687 37.8307 16.0715 38.1165 14.4837 38.2753C12.8959 38.4341 11.1175 38.4976 9.14864 38.4976H5.2109Z" fill="#242424"/>
</svg>
