<svg width="354" height="44" viewBox="0 0 354 44" fill="none" xmlns="http://www.w3.org/2000/svg">
<path d="M41.8079 1.8101V42.2355H38.537V22.7056C38.537 18.0057 38.6958 12.5754 38.9816 6.57351L39.0451 5.58907H38.0289H37.7749H37.108L36.8857 6.22419C35.2344 10.7335 33.8054 14.449 32.4716 17.5293L22.0556 42.2355H20.9442L10.5282 17.5293C9.00392 13.9091 7.54314 10.1302 6.11412 6.22419L5.89183 5.58907H5.22495H4.97091H3.98647L4.04998 6.57351C4.33579 12.4801 4.49457 17.9104 4.49457 22.7056V42.2355H1.19194V1.8101H7.03505L16.7524 25.1825C17.8321 27.7548 19.0388 30.9621 20.4996 35.0587L20.8172 35.9161H22.1509L22.4685 35.0269C24.0563 30.5811 25.263 27.3737 26.2157 25.1825L35.933 1.8101H41.8079ZM42.7606 0.857422H35.3297L25.3583 24.8015C24.3421 27.1197 23.1036 30.4223 21.5793 34.7093H21.4205C20.055 30.8351 18.7848 27.5325 17.6416 24.8015L7.67017 0.857422H0.239258V43.1882H5.41549V22.7056C5.41549 17.8151 5.25671 12.4484 4.97091 6.54175H5.22495C6.68573 10.6383 8.17826 14.4172 9.6708 17.9104L20.3091 43.1882H22.6908L33.3608 17.9104C34.7581 14.6713 36.2188 10.8606 37.8066 6.54175H38.0607C37.7749 12.5436 37.6161 17.9422 37.6161 22.7056V43.1882H42.7923V0.857422H42.7606Z" fill="#464646"/>
<path d="M90.6486 1.8101V4.57288H71.0551H70.1025V5.52556V19.2124V20.1651H71.0551H88.3622V22.9279H71.0551H70.1025V23.8805V38.5518V39.5045H71.0551H91.8236V42.2673H66.8316V1.8101H90.6486ZM91.6013 0.857422H65.8789V43.1882H92.7763V38.5201H71.0551V23.8488H89.3149V19.1806H71.0551V5.4938H91.6013V0.857422Z" fill="#464646"/>
<path d="M123.675 1.8101C125.612 1.8101 127.39 1.87361 128.915 2.03239C130.598 2.19117 132.058 2.47698 133.329 2.85805C135.679 3.52493 137.743 4.44585 139.521 5.62083C141.268 6.7958 142.728 8.19306 143.872 9.78087C145.015 11.4004 145.904 13.2423 146.476 15.2111C147.047 17.307 147.333 19.4665 147.333 21.8164C147.333 24.2299 147.047 26.4845 146.444 28.5169C145.872 30.5811 144.983 32.4547 143.84 34.106C142.697 35.7255 141.204 37.1546 139.458 38.3613C137.679 39.568 135.615 40.5207 133.265 41.1558C131.836 41.5686 130.344 41.8227 128.851 41.9815C127.263 42.1403 125.485 42.2038 123.611 42.2038H114.974V1.8101H123.675ZM118.213 39.4728H119.165H123.103C125.072 39.4728 126.914 39.4092 128.534 39.2505C130.058 39.1234 131.55 38.8376 133.043 38.393C136.568 37.2816 139.331 35.3127 141.268 32.4864C143.173 29.6919 144.126 26.1035 144.126 21.8164C144.126 17.5611 143.173 14.0362 141.268 11.3687C139.362 8.6694 136.6 6.73229 133.075 5.65258C131.709 5.23975 130.248 4.95395 128.534 4.76341C126.914 4.60463 125.072 4.54112 123.103 4.54112H119.165H118.213V5.4938V38.4883V39.4728ZM123.675 0.857422H113.989V43.1882H123.58C125.517 43.1882 127.295 43.1247 128.915 42.9659C130.566 42.8071 132.09 42.5213 133.519 42.1085C135.996 41.4416 138.156 40.4254 139.997 39.1552C141.839 37.8849 143.395 36.3924 144.634 34.6458C145.872 32.8993 146.793 30.9304 147.397 28.771C148.032 26.6116 148.318 24.2934 148.318 21.8164C148.318 19.3712 148.032 17.0848 147.428 14.9571C146.825 12.8612 145.904 10.9558 144.697 9.24101C143.491 7.55794 141.966 6.06541 140.093 4.82693C138.251 3.58844 136.091 2.604 133.614 1.93713C132.217 1.5243 130.661 1.27025 129.042 1.07971C127.359 0.920934 125.58 0.857422 123.675 0.857422ZM119.165 38.5201V5.4938H123.103C125.072 5.4938 126.85 5.55731 128.438 5.71609C130.026 5.87487 131.455 6.12892 132.725 6.54175C136.06 7.5897 138.664 9.36804 140.442 11.9085C142.252 14.449 143.141 17.7516 143.141 21.8164C143.141 25.9447 142.252 29.3108 140.442 31.9466C138.664 34.5506 136.06 36.4242 132.725 37.4721C131.423 37.8532 130.026 38.139 128.438 38.2978C126.85 38.4566 125.072 38.5201 123.103 38.5201H119.165Z" fill="#464646"/>
<path d="M172.928 1.74663V42.2673H169.626V1.74663H172.928ZM173.881 0.793945H168.673V43.22H173.881V0.793945Z" fill="#464646"/>
<path d="M217.197 0.952681C218.181 0.952681 219.007 0.984437 219.737 1.04795C220.563 1.11146 221.388 1.20673 222.119 1.33375C222.881 1.46078 223.579 1.61956 224.246 1.81009C224.659 1.93712 225.009 2.03239 225.294 2.12765V4.7634C224.31 4.50936 223.262 4.25531 222.214 4.06477C220.594 3.77897 219.007 3.65194 217.451 3.65194C214.974 3.65194 212.624 4.03302 210.464 4.82692C208.305 5.58906 206.399 6.79579 204.748 8.38359C203.16 9.97139 201.858 11.9403 200.937 14.2585C200.017 16.5766 199.54 19.2759 199.54 22.2927C199.54 25.3096 199.985 27.9771 200.81 30.2317C201.668 32.4864 202.906 34.4235 204.494 35.9161C206.114 37.4404 208.051 38.5518 210.242 39.2504C212.433 39.9808 214.847 40.2984 217.578 40.2984C218.371 40.2984 219.134 40.2666 219.896 40.2031C220.721 40.1396 221.547 40.0126 222.373 39.8856C223.198 39.7585 223.961 39.5998 224.786 39.4092C225.072 39.3457 225.358 39.2822 225.644 39.1869V41.7592C224.627 42.1085 223.452 42.3943 222.119 42.6166C220.594 42.8706 218.943 42.9977 217.197 42.9977C213.767 42.9977 210.718 42.5213 208.146 41.6004C205.574 40.6795 203.383 39.314 201.636 37.5991C199.889 35.8843 198.556 33.7249 197.667 31.2162C196.746 28.6757 196.301 25.7541 196.301 22.515C196.301 19.3394 196.777 16.4179 197.762 13.7504C198.715 11.1146 200.112 8.82818 201.89 6.95457C203.7 5.04921 205.923 3.58843 208.464 2.54048C211.068 1.49253 213.989 0.952681 217.197 0.952681ZM217.197 0C213.83 0 210.814 0.539852 208.114 1.65131C205.415 2.76277 203.129 4.31882 201.223 6.28769C199.35 8.28832 197.889 10.67 196.873 13.4328C195.856 16.1956 195.38 19.2124 195.38 22.515C195.38 25.8494 195.856 28.8662 196.809 31.5337C197.762 34.1695 199.159 36.4242 201.001 38.266C202.843 40.1079 205.129 41.5051 207.86 42.4896C210.591 43.474 213.703 43.9503 217.26 43.9503C218.975 43.9503 220.69 43.8233 222.341 43.5693C223.992 43.2835 225.421 42.9341 226.66 42.4578V37.9485C226.056 38.139 225.39 38.3295 224.627 38.5201C223.865 38.6788 223.071 38.8376 222.277 38.9646C221.484 39.0917 220.69 39.2187 219.896 39.2504C219.102 39.314 218.371 39.3457 217.641 39.3457C215.069 39.3457 212.719 39.0282 210.591 38.3295C208.495 37.6626 206.685 36.6147 205.193 35.2174C203.7 33.8202 202.557 32.0418 201.731 29.9142C200.906 27.7548 200.525 25.246 200.525 22.3245C200.525 19.4029 200.969 16.8307 201.858 14.6395C202.748 12.4484 203.923 10.5748 205.447 9.08222C206.971 7.62145 208.749 6.47823 210.845 5.74784C212.909 5.01745 215.132 4.63638 217.514 4.63638C219.07 4.63638 220.594 4.79516 222.119 5.04921C223.643 5.30326 225.04 5.65257 226.311 6.0654V1.49253C225.834 1.27024 225.231 1.0797 224.564 0.889169C223.897 0.698633 223.135 0.539852 222.373 0.381072C221.579 0.254048 220.753 0.15878 219.896 0.063512C218.975 0.031756 218.086 0 217.197 0Z" fill="#464646"/>
<path d="M258.511 1.8101C260.416 1.8101 261.941 1.87361 263.147 2.00064C264.418 2.12766 265.561 2.34995 266.545 2.604C269.308 3.36615 271.404 4.63639 272.833 6.41473C274.23 8.12955 274.961 10.3525 274.961 13.02C274.961 14.6395 274.707 16.0368 274.23 17.2435C273.722 18.482 273.024 19.53 272.103 20.4509C271.213 21.3401 270.102 22.1022 268.8 22.6738C267.498 23.2772 266.005 23.7218 264.418 24.0076L263.528 24.1663V25.2143L263.814 25.6271L275.31 42.2038H272.42L259.686 25.0555L259.4 24.6744H258.924H252.7H251.747V25.6271V42.2038H248.476V1.8101H258.511ZM251.747 21.9752H252.7H257.781C259.273 21.9752 260.67 21.9117 261.909 21.8164C263.052 21.7211 264.132 21.4988 265.116 21.213C267.085 20.6097 268.641 19.6252 269.721 18.2915C270.832 16.926 271.404 15.1476 271.404 12.9565C271.372 10.9241 270.832 9.24101 269.784 7.97077C268.768 6.73229 267.339 5.81136 265.561 5.27151C264.672 5.01746 263.687 4.82693 262.639 4.73166C261.528 4.60463 260.131 4.57288 258.511 4.57288H252.7H251.747V5.52556V21.0225V21.9752ZM258.511 0.857422H247.523V43.1882H252.7V25.6589H258.924L271.944 43.1882H277.12L264.608 25.0873L264.545 24.9602H264.608C266.291 24.6744 267.847 24.1981 269.213 23.563C270.578 22.9279 271.785 22.134 272.769 21.1495C273.786 20.1333 274.548 18.9901 275.088 17.6246C275.628 16.2591 275.882 14.7348 275.882 13.02C275.882 10.1302 275.119 7.71672 273.532 5.81136C271.976 3.87424 269.721 2.50874 266.768 1.71483C265.72 1.42903 264.513 1.20674 263.211 1.07971C261.941 0.920934 260.385 0.857422 258.511 0.857422ZM252.7 21.0225V5.4938H258.543C260.162 5.4938 261.496 5.55731 262.576 5.65258C263.624 5.74785 264.545 5.93839 265.307 6.16068C266.895 6.63702 268.165 7.43092 269.086 8.54238C270.007 9.65384 270.451 11.1146 270.483 12.9247C270.483 14.8618 270.007 16.4496 269.022 17.6246C268.038 18.8313 266.672 19.6887 264.862 20.2286C263.973 20.5144 262.957 20.7049 261.845 20.8002C260.734 20.8955 259.368 20.959 257.781 20.959H252.7V21.0225Z" fill="#464646"/>
<path d="M302.493 1.8101V42.2355H299.19V1.8101H302.493ZM303.446 0.857422H298.238V43.1882H303.446V0.857422Z" fill="#464646"/>
<path d="M339.87 0.952681C342.093 0.952681 344.125 1.17497 345.967 1.5878C347.586 1.93712 349.143 2.41346 350.572 2.98507V5.71608C349.174 5.20799 347.777 4.7634 346.316 4.38233C344.379 3.90599 342.283 3.65194 340.092 3.65194C338.409 3.65194 336.885 3.84248 335.646 4.1918C334.344 4.57287 333.233 5.14448 332.375 5.87486C331.486 6.60525 330.819 7.52618 330.375 8.57413C329.962 9.59032 329.74 10.7653 329.74 12.0038C329.74 13.401 330.025 14.6078 330.629 15.5922C331.232 16.5449 331.994 17.307 332.979 17.9104C333.963 18.5138 335.011 18.9901 336.154 19.3077C337.298 19.657 338.473 19.9745 339.711 20.2603C341.331 20.6414 342.95 21.086 344.506 21.5623C345.999 22.0069 347.301 22.642 348.476 23.4359C349.619 24.2298 350.508 25.2143 351.207 26.4528C351.874 27.6595 352.223 29.2791 352.223 31.2797C352.223 33.3121 351.842 35.0904 351.08 36.5194C350.318 37.9802 349.301 39.1552 347.936 40.1079C346.539 41.0923 344.951 41.7909 343.045 42.2673C341.108 42.7436 338.981 42.9659 336.694 42.9659C335.583 42.9659 334.503 42.9024 333.455 42.7754C332.28 42.6166 331.232 42.4578 330.248 42.2355C329.327 42.045 328.438 41.7909 327.517 41.4734C327.009 41.3146 326.564 41.1241 326.151 40.9335V38.266C326.532 38.4248 326.977 38.5836 327.453 38.7423C328.501 39.0917 329.486 39.3457 330.502 39.568C331.518 39.7903 332.534 39.9808 333.646 40.1079C334.694 40.2349 335.71 40.2984 336.662 40.2984C338.155 40.2984 339.647 40.1714 341.076 39.9173C342.474 39.6633 343.776 39.1869 344.919 38.5518C346.062 37.8849 346.983 36.964 347.682 35.789C348.349 34.6141 348.698 33.185 348.698 31.4702C348.698 30.0094 348.38 28.8027 347.777 27.85C347.237 26.9291 346.443 26.1352 345.395 25.5001C344.474 24.9285 343.395 24.4521 342.188 24.1028C340.981 23.7535 339.806 23.4359 338.568 23.1501C336.789 22.7056 335.233 22.2927 333.804 21.8799C332.312 21.4353 331.01 20.8002 329.867 20.0381C328.755 19.2759 327.866 18.2915 327.167 17.0847C326.5 15.9098 326.183 14.3537 326.183 12.4484C326.183 10.4477 326.532 8.73291 327.263 7.33564C327.993 5.90662 328.977 4.73165 330.184 3.81072C331.423 2.85804 332.852 2.19117 334.503 1.71483C336.154 1.17497 337.964 0.952681 339.87 0.952681ZM339.87 0C337.869 0 336.027 0.222292 334.249 0.698633C332.502 1.20673 330.946 1.93712 329.613 2.95331C328.279 3.9695 327.199 5.2715 326.405 6.79579C325.611 8.32008 325.23 10.1937 325.23 12.3531C325.23 14.4172 325.611 16.1321 326.342 17.4341C327.104 18.7678 328.088 19.8793 329.327 20.7049C330.565 21.5623 331.963 22.1975 333.55 22.6738C335.106 23.1501 336.726 23.563 338.377 23.944C339.616 24.2298 340.791 24.5474 341.934 24.8967C343.045 25.246 344.062 25.6906 344.919 26.1987C345.776 26.7386 346.475 27.4055 346.983 28.2311C347.523 29.0568 347.777 30.1047 347.777 31.375C347.777 32.931 347.491 34.2012 346.888 35.2174C346.284 36.2336 345.491 37.0275 344.474 37.6309C343.458 38.2025 342.283 38.6471 340.949 38.9011C339.616 39.1552 338.187 39.2822 336.726 39.2822C335.837 39.2822 334.852 39.2187 333.804 39.0917C332.756 38.9646 331.74 38.8059 330.756 38.5518C329.74 38.3295 328.755 38.0755 327.802 37.7579C326.85 37.4404 325.992 37.1228 325.262 36.7417V41.4416C325.738 41.7274 326.405 42.045 327.263 42.3308C328.12 42.6166 329.041 42.9024 330.089 43.1247C331.137 43.3787 332.217 43.5375 333.392 43.6963C334.535 43.8233 335.646 43.8868 336.758 43.8868C339.139 43.8868 341.331 43.6328 343.331 43.1564C345.332 42.6483 347.078 41.8862 348.539 40.87C350 39.8538 351.175 38.5518 352.001 36.964C352.826 35.3762 353.239 33.4709 353.239 31.2797C353.239 29.1203 352.858 27.3419 352.096 25.9764C351.334 24.6109 350.317 23.4995 349.079 22.642C347.841 21.7846 346.443 21.1178 344.855 20.6414C343.268 20.1651 341.648 19.7205 340.029 19.3077C338.822 18.9901 337.647 18.7043 336.504 18.355C335.392 18.0374 334.408 17.5611 333.55 17.053C332.693 16.5131 332.026 15.8463 331.518 15.0524C331.01 14.2267 330.756 13.2105 330.756 11.972C330.756 10.8606 330.946 9.81261 331.327 8.92344C331.708 8.00252 332.28 7.20862 333.074 6.60525C333.868 5.93838 334.852 5.46204 336.027 5.11272C337.234 4.7634 338.631 4.60462 340.219 4.60462C342.347 4.63638 344.347 4.85867 346.221 5.33501C348.095 5.81135 349.905 6.41472 351.651 7.14511V2.34995C350.032 1.65131 348.253 1.0797 346.284 0.635121C344.22 0.222292 342.124 0 339.87 0Z" fill="#464646"/>
</svg>
