<svg width="44" height="44" viewBox="0 0 44 44" fill="none" xmlns="http://www.w3.org/2000/svg">
<path d="M42.3186 1.78764V42.2131H39.0478V22.6831C39.0478 17.9832 39.2065 12.5529 39.4924 6.55105L39.5559 5.56661H38.5397H38.2856H37.6187L37.3965 6.20173C35.7451 10.7111 34.3161 14.4265 32.9824 17.5069L22.5664 42.2131H21.4549L11.039 17.5069C9.51466 13.8867 8.05389 10.1077 6.62487 6.20173L6.40257 5.56661H5.7357H5.48165H4.49721L4.56072 6.55105C4.84653 12.4577 5.00531 17.8879 5.00531 22.6831V42.2131H1.70268V1.78764H7.54579L17.2631 25.1601C18.3428 27.7323 19.5496 30.9397 21.0103 35.0362L21.3279 35.8936H22.6617L22.9792 35.0044C24.567 30.5586 25.7738 27.3512 26.7264 25.1601L36.4438 1.78764H42.3186ZM43.2713 0.834961H35.8404L25.869 24.779C24.8528 27.0972 23.6143 30.3998 22.09 34.6869H21.9313C20.5658 30.8126 19.2955 27.51 18.1523 24.779L8.18091 0.834961H0.75V43.1657H5.92623V22.6831C5.92623 17.7927 5.76745 12.4259 5.48165 6.51929H5.7357C7.19647 10.6158 8.68901 14.3948 10.1815 17.8879L20.8198 43.1657H23.2015L33.8715 17.8879C35.2688 14.6488 36.7296 10.8381 38.3174 6.51929H38.5714C38.2856 12.5212 38.1268 17.9197 38.1268 22.6831V43.1657H43.3031V0.834961H43.2713Z" fill="#242424"/>
</svg>
