<svg width="30" height="44" viewBox="0 0 30 44" fill="none" xmlns="http://www.w3.org/2000/svg">
<path d="M11.0896 1.78764C12.995 1.78764 14.5193 1.85115 15.726 1.97818C16.9963 2.1052 18.1395 2.32749 19.1239 2.58154C21.8867 3.34369 23.9826 4.61393 25.4116 6.39227C26.8088 8.10709 27.5393 10.33 27.5393 12.9975C27.5393 14.6171 27.2852 16.0143 26.8089 17.2211C26.3008 18.4596 25.6021 19.5075 24.6812 20.4284C23.792 21.3176 22.6806 22.0797 21.3786 22.6514C20.0766 23.2547 18.5841 23.6993 16.9963 23.9851L16.1071 24.1439V25.1918L16.3929 25.6047L27.8886 42.1813H24.9988L12.2646 25.0331L11.9788 24.652H11.5025H5.27827H4.32558V25.6047V42.1813H1.05472V1.78764H11.0896ZM4.32558 21.9527H5.27827H10.3592C11.8518 21.9527 13.249 21.8892 14.4875 21.7939C15.6307 21.6987 16.7105 21.4764 17.6949 21.1906C19.6638 20.5872 21.2198 19.6028 22.2995 18.269C23.411 16.9035 23.9826 15.1252 23.9826 12.934C23.9508 10.9016 23.411 9.21855 22.363 7.94831C21.3468 6.70983 19.9178 5.7889 18.1395 5.24905C17.2503 4.995 16.2659 4.80446 15.2179 4.7092C14.1064 4.58217 12.7092 4.55042 11.0896 4.55042H5.27827H4.32558V5.5031V21V21.9527ZM11.0896 0.834961H0.102051V43.1657H5.27827V25.6364H11.5025L24.5224 43.1657H29.6987L17.1868 25.0648L17.1233 24.9378H17.1868C18.8699 24.652 20.4259 24.1756 21.7914 23.5405C23.1569 22.9054 24.3636 22.1115 25.3481 21.1271C26.3643 20.1109 27.1264 18.9677 27.6663 17.6021C28.2061 16.2366 28.4602 14.7123 28.4602 12.9975C28.4602 10.1077 27.698 7.69426 26.1102 5.7889C24.5542 3.85178 22.2995 2.48627 19.3462 1.69237C18.2982 1.40657 17.0915 1.18428 15.7895 1.05725C14.5193 0.898473 12.9632 0.834961 11.0896 0.834961ZM5.27827 21V5.47134H11.1214C12.7409 5.47134 14.0747 5.53485 15.1544 5.63012C16.2023 5.72539 17.1233 5.91593 17.8854 6.13822C19.4732 6.61456 20.7435 7.40846 21.6644 8.51992C22.5853 9.63138 23.0299 11.0922 23.0616 12.9023C23.0616 14.8394 22.5853 16.4272 21.6009 17.6021C20.6164 18.8089 19.2509 19.6663 17.4408 20.2061C16.5517 20.4919 15.5355 20.6825 14.424 20.7777C13.3125 20.873 11.947 20.9365 10.3592 20.9365H5.27827V21Z" fill="#242424"/>
</svg>
