<svg width="29" height="44" viewBox="0 0 29 44" fill="none" xmlns="http://www.w3.org/2000/svg">
<path d="M15.3807 1.00981C17.6037 1.00981 19.6361 1.2321 21.4779 1.64493C23.0975 1.99425 24.6535 2.47059 26.0825 3.0422V5.77321C24.6853 5.26512 23.288 4.82053 21.8272 4.43946C19.8901 3.96312 17.7942 3.70907 15.603 3.70907C13.92 3.70907 12.3957 3.89961 11.1572 4.24892C9.85521 4.63 8.74373 5.2016 7.88632 5.93199C6.99715 6.66238 6.33028 7.58331 5.8857 8.63126C5.47287 9.64745 5.25059 10.8224 5.25059 12.0609C5.25059 13.4582 5.53639 14.6649 6.13975 15.6493C6.74311 16.602 7.50525 17.3642 8.48969 17.9675C9.47413 18.5709 10.5221 19.0472 11.6653 19.3648C12.8085 19.7141 13.9835 20.0317 15.222 20.3175C16.8415 20.6985 18.4611 21.1431 20.0171 21.6195C21.5097 22.0641 22.8117 22.6992 23.9866 23.4931C25.1299 24.287 26.019 25.2714 26.7176 26.5099C27.3845 27.7166 27.7338 29.3362 27.7338 31.3368C27.7338 33.3692 27.3528 35.1475 26.5906 36.5766C25.8285 38.0373 24.8123 39.2123 23.4468 40.165C22.0495 41.1494 20.4617 41.8481 18.5563 42.3244C16.6192 42.8007 14.4916 43.023 12.2051 43.023C11.0937 43.023 10.014 42.9595 8.96603 42.8325C7.79106 42.6737 6.74311 42.5149 5.75867 42.2926C4.83774 42.1021 3.94857 41.8481 3.02765 41.5305C2.51955 41.3717 2.07497 41.1812 1.66214 40.9906V38.3231C2.04321 38.4819 2.48781 38.6407 2.96415 38.7995C4.0121 39.1488 4.99653 39.4028 6.01272 39.6251C7.02892 39.8474 8.0451 40.038 9.15656 40.165C10.2045 40.292 11.2207 40.3555 12.1734 40.3555C13.6659 40.3555 15.1585 40.2285 16.5875 39.9744C17.9848 39.7204 19.2867 39.2441 20.43 38.6089C21.5732 37.9421 22.4941 37.0211 23.1927 35.8462C23.8596 34.6712 24.2089 33.2422 24.2089 31.5273C24.2089 30.0666 23.8914 28.8598 23.288 27.9072C22.7482 26.9862 21.9543 26.1923 20.9063 25.5572C19.9854 24.9856 18.9057 24.5093 17.6989 24.16C16.4922 23.8106 15.3172 23.4931 14.0788 23.2073C12.3004 22.7627 10.7444 22.3499 9.31535 21.937C7.82282 21.4924 6.52083 20.8573 5.37761 20.0952C4.26615 19.333 3.37696 18.3486 2.67833 17.1419C2.01145 15.9669 1.6939 14.4109 1.6939 12.5055C1.6939 10.5049 2.04323 8.79004 2.77362 7.39277C3.50401 5.96375 4.48844 4.78878 5.69517 3.86785C6.93365 2.91517 8.36268 2.24829 10.014 1.77195C11.6653 1.2321 13.4754 1.00981 15.3807 1.00981ZM15.3807 0.0571289C13.3801 0.0571289 11.5383 0.279421 9.75994 0.755761C8.01335 1.26386 6.45731 1.99425 5.12356 3.01044C3.7898 4.02663 2.71009 5.32863 1.91619 6.85292C1.12229 8.37721 0.741211 10.2508 0.741211 12.4102C0.741211 14.4744 1.1223 16.1892 1.85269 17.4912C2.61484 18.8249 3.59926 19.9364 4.83774 20.7621C6.07623 21.6195 7.4735 22.2546 9.0613 22.7309C10.6173 23.2073 12.2369 23.6201 13.8882 24.0012C15.1267 24.287 16.3017 24.6045 17.4449 24.9539C18.5563 25.3032 19.5725 25.7478 20.43 26.2558C21.2874 26.7957 21.986 27.4626 22.4941 28.2882C23.034 29.1139 23.288 30.1618 23.288 31.4321C23.288 32.9881 23.0022 34.2584 22.3988 35.2746C21.7955 36.2908 21.0016 37.0847 19.9854 37.688C18.9692 38.2596 17.7942 38.7042 16.4605 38.9583C15.1267 39.2123 13.6977 39.3393 12.2369 39.3393C11.3477 39.3393 10.3633 39.2758 9.31535 39.1488C8.2674 39.0218 7.25121 38.863 6.26678 38.6089C5.25058 38.3867 4.26615 38.1326 3.31347 37.815C2.36078 37.4975 1.50336 37.1799 0.772974 36.7988V41.4987C1.24931 41.7845 1.91621 42.1021 2.77362 42.3879C3.63103 42.6737 4.55195 42.9595 5.5999 43.1818C6.64785 43.4359 7.72756 43.5946 8.90253 43.7534C10.0457 43.8804 11.1572 43.944 12.2687 43.944C14.6504 43.944 16.8415 43.6899 18.8422 43.2136C20.8428 42.7055 22.5894 41.9433 24.0501 40.9271C25.5109 39.9109 26.6859 38.6089 27.5115 37.0211C28.3372 35.4333 28.75 33.528 28.75 31.3368C28.75 29.1774 28.369 27.3991 27.6068 26.0336C26.8447 24.668 25.8285 23.5566 24.59 22.6992C23.3515 21.8418 21.9542 21.1749 20.3664 20.6985C18.7786 20.2222 17.1591 19.7776 15.5395 19.3648C14.3328 19.0472 13.1578 18.7614 12.0146 18.4121C10.9031 18.0946 9.91871 17.6182 9.0613 17.1101C8.20389 16.5703 7.53701 15.9034 7.02891 15.1095C6.52082 14.2838 6.26678 13.2676 6.26678 12.0292C6.26678 10.9177 6.45731 9.86974 6.83839 8.98057C7.21946 8.05965 7.79105 7.26575 8.58495 6.66238C9.37885 5.99551 10.3633 5.51917 11.5383 5.16985C12.745 4.82053 14.1423 4.66175 15.7301 4.66175C17.8577 4.69351 19.8583 4.9158 21.7319 5.39214C23.6056 5.86848 25.4157 6.47185 27.1622 7.20223V2.40707C25.5427 1.70844 23.7643 1.13683 21.7955 0.692249C19.7313 0.279421 17.6354 0.0571289 15.3807 0.0571289Z" fill="#242424"/>
</svg>
