<svg width="17" height="17" viewBox="0 0 17 17" fill="none" xmlns="http://www.w3.org/2000/svg">
<path fill-rule="evenodd" clip-rule="evenodd" d="M9.32935 15.707L10.6849 10.6723C10.7148 10.5613 10.8015 10.4746 10.9125 10.4447L15.9472 9.08911C16.7468 8.87384 16.7468 7.73944 15.9472 7.52417L10.9125 6.16859C10.8015 6.1387 10.7148 6.05199 10.6849 5.94097L9.32935 0.906299C9.11407 0.106754 7.97968 0.106754 7.7644 0.906299L6.40883 5.94097C6.37894 6.05199 6.29222 6.1387 6.1812 6.16859L1.14653 7.52417C0.34699 7.73944 0.346988 8.87384 1.14653 9.08911L6.1812 10.4447C6.29222 10.4746 6.37894 10.5613 6.40883 10.6723L7.7644 15.707C7.97968 16.5065 9.11407 16.5065 9.32935 15.707ZM10.4956 10.6213L9.14004 15.656C8.97684 16.2621 8.11691 16.2621 7.95371 15.656L6.59814 10.6213C6.55008 10.4429 6.41066 10.3034 6.23218 10.2554L1.1975 8.8998C0.5914 8.73661 0.591401 7.87667 1.19751 7.71348L6.23218 6.3579C6.41066 6.30984 6.55008 6.17043 6.59814 5.99194L7.95371 0.957269C8.11691 0.351166 8.97684 0.351166 9.14004 0.957269L10.4956 5.99194C10.5437 6.17043 10.6831 6.30985 10.8616 6.3579L15.8962 7.71348C16.5023 7.87667 16.5023 8.73661 15.8962 8.8998L10.8616 10.2554C10.6831 10.3034 10.5437 10.4429 10.4956 10.6213ZM7.99989 15.6436C8.15038 16.2025 8.94337 16.2025 9.09386 15.6436L10.4494 10.6089C10.5019 10.414 10.6542 10.2617 10.8491 10.2092L15.8838 8.85362C16.4427 8.70313 16.4427 7.91015 15.8838 7.75966L10.8491 6.40408C10.6542 6.35159 10.5019 6.19932 10.4494 6.00438L9.09386 0.969705C8.94337 0.410788 8.15038 0.410788 7.99989 0.969703L6.64432 6.00438C6.59183 6.19932 6.43955 6.35159 6.24461 6.40408L1.20994 7.75966C0.651024 7.91015 0.651023 8.70313 1.20994 8.85362L6.24461 10.2092C6.43955 10.2617 6.59183 10.414 6.64432 10.6089L7.99989 15.6436Z" fill="#242424"/>
</svg>
