<?xml version="1.0" encoding="UTF-8" standalone="no"?>
<svg
   width="101"
   height="61"
   viewBox="0 0 101 61"
   fill="none"
   version="1.1"
   id="svg2"
   sodipodi:docname="4,8.svg"
   inkscape:version="1.3.2 (091e20e, 2023-11-25, custom)"
   xmlns:inkscape="http://www.inkscape.org/namespaces/inkscape"
   xmlns:sodipodi="http://sodipodi.sourceforge.net/DTD/sodipodi-0.dtd"
   xmlns="http://www.w3.org/2000/svg"
   xmlns:svg="http://www.w3.org/2000/svg">
  <defs
     id="defs2" />
  <sodipodi:namedview
     id="namedview2"
     pagecolor="#ffffff"
     bordercolor="#000000"
     borderopacity="0.25"
     inkscape:showpageshadow="2"
     inkscape:pageopacity="0.0"
     inkscape:pagecheckerboard="0"
     inkscape:deskcolor="#d1d1d1"
     inkscape:zoom="4.2986491"
     inkscape:cx="79.327246"
     inkscape:cy="28.729956"
     inkscape:window-width="1920"
     inkscape:window-height="1001"
     inkscape:window-x="-9"
     inkscape:window-y="-9"
     inkscape:window-maximized="1"
     inkscape:current-layer="svg2" />
  <mask
     id="path-1-outside-1_1_1318"
     maskUnits="userSpaceOnUse"
     x="-1"
     y="-0.585938"
     width="103"
     height="63"
     fill="black">
    <rect
       fill="white"
       x="-1"
       y="-0.585938"
       width="103"
       height="63"
       id="rect1" />
    <path
       d="M0.27625 38.3522V33.4433L25.3818 1.32495H32.9556L8.06038 33.4433L4.48389 32.3212H43.6851V38.3522H0.27625ZM27.5558 50.4141V38.3522L27.7662 32.3212V21.6619H34.3581V50.4141H27.5558ZM47.5053 60.7929L51.0117 46.6272L51.9234 50.6946C50.5676 50.6946 49.4222 50.2738 48.4871 49.4323C47.5988 48.5908 47.1547 47.4453 47.1547 45.996C47.1547 44.5935 47.5988 43.4481 48.4871 42.5598C49.4222 41.6715 50.5442 41.2274 51.8532 41.2274C53.209 41.2274 54.3077 41.6949 55.1492 42.6299C55.9907 43.5182 56.4115 44.6402 56.4115 45.996C56.4115 46.4636 56.3648 46.9311 56.2713 47.3986C56.2245 47.8194 56.1076 48.3336 55.9206 48.9414C55.7804 49.5024 55.5466 50.2037 55.2193 51.0452L51.9234 60.7929H47.5053ZM80.7687 50.9751C76.7948 50.9751 73.3586 50.3907 70.46 49.2219C67.5614 48.0531 65.3173 46.3934 63.7278 44.2429C62.1382 42.0455 61.3434 39.4742 61.3434 36.5289C61.3434 33.6303 62.0915 31.1758 63.5875 29.1655C65.1303 27.1084 67.351 25.5656 70.2496 24.5371C73.1482 23.4618 76.6546 22.9242 80.7687 22.9242C84.8828 22.9242 88.3892 23.4618 91.2878 24.5371C94.2331 25.5656 96.4772 27.1084 98.02 29.1655C99.5628 31.2226 100.334 33.677 100.334 36.5289C100.334 39.4742 99.5394 42.0455 97.9499 44.2429C96.3603 46.3934 94.0929 48.0531 91.1475 49.2219C88.2022 50.3907 84.7426 50.9751 80.7687 50.9751ZM80.7687 45.2948C84.6958 45.2948 87.7581 44.5 89.9554 42.9104C92.1994 41.2741 93.3215 39.0768 93.3215 36.3185C93.3215 33.6069 92.1994 31.4797 89.9554 29.9369C87.7581 28.3473 84.6958 27.5526 80.7687 27.5526C76.8883 27.5526 73.8495 28.3473 71.6521 29.9369C69.4548 31.4797 68.3562 33.6069 68.3562 36.3185C68.3562 39.0768 69.4548 41.2741 71.6521 42.9104C73.8495 44.5 76.8883 45.2948 80.7687 45.2948ZM80.7687 26.711C77.0286 26.711 73.8495 26.2201 71.2314 25.2384C68.6133 24.2098 66.603 22.7605 65.2004 20.8905C63.7979 18.9737 63.0966 16.7062 63.0966 14.0881C63.0966 11.3298 63.8213 8.96882 65.2706 7.00526C66.7666 4.99494 68.8471 3.45214 71.5119 2.37685C74.1767 1.30157 77.2623 0.763931 80.7687 0.763931C84.3218 0.763931 87.4308 1.30157 90.0956 2.37685C92.7605 3.45214 94.8409 4.99494 96.337 7.00526C97.833 8.96882 98.581 11.3298 98.581 14.0881C98.581 16.7062 97.8798 18.9737 96.4772 20.8905C95.0747 22.7605 93.041 24.2098 90.3761 25.2384C87.7113 26.2201 84.5088 26.711 80.7687 26.711ZM80.7687 22.2229C84.1816 22.2229 86.8464 21.5216 88.7632 20.1191C90.7268 18.7165 91.7086 16.7997 91.7086 14.3686C91.7086 11.8908 90.7034 9.95061 88.6931 8.54806C86.6828 7.14551 84.0413 6.44424 80.7687 6.44424C77.4961 6.44424 74.878 7.14551 72.9144 8.54806C70.9976 9.95061 70.0392 11.8908 70.0392 14.3686C70.0392 16.7997 70.9743 18.7165 72.8443 20.1191C74.7611 21.5216 77.4026 22.2229 80.7687 22.2229Z"
       id="path1" />
  </mask>
  <path
     d="m 0.27625,38.3522 h -0.701273 v 0.7012 H 0.27625 Z m 0,-4.9089 -0.552511,-0.4319 -0.148762,0.1903 v 0.2416 z M 25.3818,1.32495 V 0.623672 h -0.3419 l -0.2106,0.2694 z m 7.5738,0 0.5542,0.42961 0.8766,-1.130888 H 32.9556 Z M 8.06038,33.4433 7.85046,34.1124 8.31584,34.2584 8.61465,33.8729 Z M 4.48389,32.3212 v -0.7013 l -0.20992,1.3704 z m 39.20121,0 h 0.7012 v -0.7013 h -0.7012 z m 0,6.031 v 0.7012 h 0.7012 V 38.3522 Z M 27.5558,50.4141 h -0.7013 v 0.7012 h 0.7013 z m 0,-12.0619 -0.7009,-0.0245 -4e-4,0.0122 v 0.0123 z m 0.2104,-6.031 0.7008,0.0245 4e-4,-0.0123 v -0.0122 z m 0,-10.6593 v -0.7013 h -0.7013 v 0.7013 z m 6.5919,0 h 0.7013 v -0.7013 h -0.7013 z m 0,28.7522 v 0.7012 h 0.7013 V 50.4141 Z M 0.977523,38.3522 v -4.9089 h -1.402546 v 4.9089 z M 0.82876,33.8751 25.9343,1.75682 24.8293,0.893072 -0.276261,33.0114 Z M 25.3818,2.02622 h 7.5738 V 0.623672 H 25.3818 Z M 32.4013,0.895329 7.50611,33.0136 8.61465,33.8729 33.5098,1.75456 Z M 8.2703,32.7741 4.69381,31.6521 4.27397,32.9903 7.85046,34.1124 Z M 4.48389,33.0225 H 43.6851 V 31.6199 H 4.48389 Z M 42.9838,32.3212 v 6.031 h 1.4025 v -6.031 z m 0.7013,5.3297 H 0.27625 v 1.4025 H 43.6851 Z M 28.257,50.4141 V 38.3522 h -1.4025 v 12.0619 z m -4e-4,-12.0375 0.2104,-6.0309 -1.4017,-0.0489 -0.2104,6.0309 z m 0.2108,-6.0554 V 21.6619 h -1.4025 v 10.6593 z m -0.7012,-9.9581 h 6.5919 v -1.4025 h -6.5919 z m 5.8906,-0.7012 v 28.7522 h 1.4026 V 21.6619 Z m 0.7013,28.0509 h -6.8023 v 1.4025 h 6.8023 z m 13.1472,11.0801 -0.6807,-0.1685 -0.2153,0.8698 h 0.896 z m 3.5064,-14.1657 0.6843,-0.1534 -1.365,-0.0151 z m 0.9117,4.0674 v 0.7012 h 0.8758 l -0.1915,-0.8546 z m -3.4363,-1.2623 -0.4823,0.5091 0.0065,0.0061 0.0067,0.006 z m 0,-6.8725 -0.483,-0.5084 -0.0065,0.0062 -0.0063,0.0063 z m 6.6621,0.0701 -0.5212,0.4692 0.006,0.0066 0.0061,0.0065 z m 1.1221,4.7687 -0.6877,-0.1375 -0.006,0.0298 -0.0033,0.0302 z m -0.3507,1.5428 -0.6702,-0.2062 -0.0056,0.0179 -0.0045,0.0182 z m -0.7013,2.1038 -0.6535,-0.2542 -0.0057,0.0147 -0.0051,0.0149 z m -3.2959,9.7477 v 0.7013 h 0.5031 l 0.1612,-0.4767 z m -3.7373,0.1685 3.5063,-14.1657 -1.3614,-0.337 -3.5064,14.1657 z m 2.1413,-14.1808 0.9117,4.0673 1.3686,-0.3067 -0.9117,-4.0674 z m 1.596,3.2127 c -1.1972,0 -2.1714,-0.3661 -2.9671,-1.0823 l -0.9383,1.0425 c 1.0743,0.9669 2.391,1.4423 3.9054,1.4423 z m -2.954,-1.0701 C 48.2466,48.2384 47.856,47.2913 47.856,45.996 h -1.4026 c 0,1.6034 0.4977,2.9471 1.5514,3.9454 z M 47.856,45.996 c 0,-1.2402 0.3861,-2.1994 1.127,-2.9403 l -0.9917,-0.9918 c -1.0357,1.0357 -1.5379,2.3673 -1.5379,3.9321 z m 1.1141,-2.9278 c 0.8026,-0.7624 1.7509,-1.1395 2.8831,-1.1395 v -1.4026 c -1.4858,0 -2.7816,0.5111 -3.8491,1.5253 z m 2.8831,-1.1395 c 1.1744,0 2.0774,0.3955 2.7748,1.1704 l 1.0425,-0.9383 c -0.9857,-1.0952 -2.28,-1.6347 -3.8173,-1.6347 z m 2.7869,1.1835 c 0.7044,0.7435 1.0701,1.6864 1.0701,2.8838 h 1.4026 c 0,-1.5141 -0.4758,-2.8153 -1.4545,-3.8484 z m 1.0701,2.8838 c 0,0.4205 -0.042,0.8419 -0.1266,1.2651 l 1.3753,0.275 c 0.1024,-0.5119 0.1539,-1.0255 0.1539,-1.5401 z m -0.1359,1.3251 c -0.0402,0.3613 -0.1441,0.8296 -0.3239,1.4141 l 1.3405,0.4124 c 0.1942,-0.6311 0.324,-1.1913 0.3773,-1.6716 z m -0.334,1.4502 c -0.1303,0.5213 -0.3527,1.1923 -0.6745,2.0197 l 1.3071,0.5084 c 0.3328,-0.8556 0.5779,-1.5872 0.7281,-2.1879 z m -0.6853,2.0493 -3.296,9.7477 1.3287,0.4492 3.296,-9.7477 z m -2.6316,9.271 h -4.4181 v 1.4026 h 4.4181 z M 70.46,49.2219 70.1977,49.8723 Z m -6.7322,-4.979 -0.5683,0.411 0.0043,0.0058 z m -0.1403,-15.0774 -0.561,-0.4208 -0.0016,0.0021 z m 6.6621,-4.6284 0.2345,0.661 0.0094,-0.0035 z m 21.0382,0 -0.244,0.6576 0.0128,0.0045 z m 6.6621,19.7058 0.564,0.4168 0.0042,-0.0058 z m -6.8024,4.979 0.2587,0.6518 z m -1.1921,-6.3115 0.411,0.5682 0.0021,-0.0015 z m 0,-12.9735 -0.4111,0.5682 0.0069,0.0049 0.0069,0.0048 z m -18.3033,0 0.4031,0.574 0.008,-0.0058 z m 0,12.9735 -0.4188,0.5625 0.0078,0.0057 z m -0.4207,-17.672 -0.2565,0.6527 0.0103,0.0039 z m -6.031,-4.3479 -0.566,0.4141 0.005,0.0066 z M 65.2706,7.00526 64.708,6.58659 64.7063,6.58881 Z M 71.5119,2.37685 71.2495,1.72653 Z m 18.5837,0 0.2624,-0.65032 z m 6.2414,4.62841 -0.5627,0.41869 0.0048,0.00631 z m 0.1402,13.88524 0.5611,0.4208 0.0049,-0.0067 z m -6.1011,4.3479 0.2425,0.6581 0.01,-0.0039 z m -1.6129,-5.1193 -0.4076,-0.5707 -0.0065,0.0047 z M 88.6931,8.54806 88.2918,9.12319 v 1e-5 z m -15.7787,0 -0.4076,-0.57068 -0.0065,0.00473 z m -0.0701,11.57104 -0.4208,0.561 0.0067,0.0049 z m 7.9244,30.1547 c -3.9074,0 -7.2505,-0.5749 -10.0465,-1.7023 l -0.5245,1.3008 c 3.0012,1.2102 6.5306,1.8041 10.571,1.8041 z M 70.7222,48.5715 C 67.9233,47.4429 65.792,45.8559 64.2917,43.826 l -1.1279,0.8337 c 1.6788,2.2713 4.0357,4.0036 7.0339,5.2126 z M 64.296,43.8318 C 62.8004,41.7645 62.0447,39.34 62.0447,36.5289 h -1.4025 c 0,3.0795 0.8338,5.7977 2.5174,8.125 z m -2.2513,-7.3029 c 0,-2.7724 0.713,-5.0738 2.1054,-6.9447 l -1.1252,-0.8374 c -1.5997,2.1497 -2.3827,4.7572 -2.3827,7.7821 z m 2.1038,-6.9426 c 1.4449,-1.9266 3.5412,-3.3967 6.3356,-4.3883 l -0.469,-1.3218 c -3.0028,1.0655 -5.3479,2.6809 -6.9886,4.8685 z m 6.345,-4.3917 c 2.7995,-1.0385 6.2184,-1.5692 10.2752,-1.5692 v -1.4025 c -4.1715,0 -7.7653,0.5446 -10.763,1.6567 z m 10.2752,-1.5692 c 4.0568,0 7.4757,0.5307 10.2752,1.5692 l 0.4878,-1.315 C 88.534,22.7675 84.9402,22.2229 80.7687,22.2229 Z m 10.2879,1.5738 c 2.8423,0.9925 4.9595,2.4632 6.4024,4.3871 l 1.122,-0.8416 C 96.9383,26.5544 94.5674,24.9396 91.519,23.875 Z m 6.4024,4.3871 c 1.4418,1.9224 2.1739,4.225 2.1739,6.9426 h 1.4021 c 0,-2.9862 -0.81,-5.5925 -2.454,-7.7842 z m 2.1739,6.9426 c 0,2.8111 -0.7557,5.2356 -2.2512,7.3029 l 1.1364,0.8221 c 1.6839,-2.3273 2.5169,-5.0455 2.5169,-8.125 z m -2.247,7.2971 c -1.4983,2.0272 -3.6506,3.6145 -6.497,4.7441 l 0.5173,1.3036 c 3.0443,-1.208 5.4269,-2.94 7.1076,-5.214 z m -6.497,4.7441 c -2.8451,1.129 -6.2132,1.7037 -10.1202,1.7037 v 1.4026 c 4.0408,0 7.5918,-0.5941 10.6375,-1.8027 z M 80.7687,45.996 c 4.0113,0 7.238,-0.8103 9.5977,-2.5174 l -0.8221,-1.1363 c -2.0349,1.472 -4.9326,2.2512 -8.7756,2.2512 z m 9.5998,-2.5189 c 2.4237,-1.7673 3.6543,-4.1744 3.6543,-7.1586 h -1.4026 c 0,2.5324 -1.0135,4.5199 -3.078,6.0253 z m 3.6543,-7.1586 c 0,-2.9437 -1.2368,-5.2865 -3.6701,-6.9595 l -0.7946,1.1558 c 2.0547,1.4126 3.0621,3.3242 3.0621,5.8037 z M 90.3664,29.3687 C 88.0067,27.6617 84.78,26.8513 80.7687,26.8513 v 1.4025 c 3.843,0 6.7407,0.7792 8.7756,2.2513 z m -9.5977,-2.5174 c -3.9667,0 -7.1691,0.8113 -9.5276,2.5174 l 0.8221,1.1364 c 2.0361,-1.473 4.9114,-2.2513 8.7055,-2.2513 z m -9.5195,2.5117 c -2.3866,1.6756 -3.5943,4.0181 -3.5943,6.9555 h 1.4025 c 0,-2.4859 0.9896,-4.3977 2.9977,-5.8077 z m -3.5943,6.9555 c 0,2.9781 1.2019,5.3847 3.5784,7.1544 L 72.071,42.348 c -2.0182,-1.5029 -3.0136,-3.491 -3.0136,-6.0295 z m 3.5862,7.1601 c 2.3585,1.7062 5.5609,2.5174 9.5276,2.5174 v -1.4025 c -3.7941,0 -6.6694,-0.7783 -8.7055,-2.2512 z m 9.5276,-17.4688 c -3.6827,0 -6.7733,-0.4839 -9.2911,-1.4281 l -0.4924,1.3133 c 2.7184,1.0194 5.986,1.5173 9.7835,1.5173 z M 71.4878,24.5856 C 68.966,23.595 67.0714,22.2163 65.7615,20.4697 l -1.1221,0.8415 c 1.4952,1.9936 3.6212,3.5135 6.3356,4.5799 z M 65.7664,20.4764 C 64.4608,18.692 63.7979,16.5733 63.7979,14.0881 h -1.4026 c 0,2.751 0.7397,5.1672 2.2392,7.2165 z m -1.9685,-6.3883 c 0,-2.6288 0.688,-4.83887 2.0369,-6.66639 l -1.1285,-0.8329 c -1.5497,2.09961 -2.311,4.61149 -2.311,7.49929 z M 65.8331,7.42393 C 67.2416,5.53137 69.211,4.06149 71.7743,3.02718 L 71.2495,1.72653 C 68.4831,2.84279 66.2917,4.45852 64.708,6.58659 Z M 71.7743,3.02718 C 74.3396,1.99207 77.333,1.4652 80.7687,1.4652 V 0.0626583 c -3.577,0 -6.7548,0.5484157 -9.5192,1.6638717 z M 80.7687,1.4652 c 3.4838,0 6.5002,0.52728 9.0645,1.56198 L 90.358,1.72653 C 87.5926,0.610668 84.3912,0.0626583 80.7687,0.0626583 Z m 9.0645,1.56198 c 2.5633,1.03431 4.5328,2.50419 5.9412,4.39675 L 96.8995,6.58659 C 95.3159,4.45852 93.1244,2.84279 90.358,1.72653 Z m 5.9459,4.40308 c 1.3922,1.82714 2.1007,4.03414 2.1007,6.65784 h 1.4025 c 0,-2.8929 -0.7875,-5.40786 -2.3875,-7.50784 z m 2.1007,6.65784 c 0,2.4852 -0.6629,4.6039 -1.9685,6.3883 l 1.1319,0.8282 c 1.4994,-2.0493 2.2391,-4.4655 2.2391,-7.2165 z m -1.9636,6.3816 c -1.3077,1.7437 -3.2231,3.1227 -5.7926,4.1144 l 0.505,1.3085 c 2.7603,-1.0654 4.9123,-2.5849 6.4096,-4.5814 z m -5.7825,4.1106 c -2.567,0.9457 -5.6829,1.4295 -9.365,1.4295 v 1.4025 c 3.7981,0 7.0872,-0.4981 9.8499,-1.5159 z m -9.365,-1.6561 c 3.4991,0 6.3294,-0.7178 8.4086,-2.2392 l -0.8282,-1.1319 c -1.7544,1.2837 -4.2538,1.9685 -7.5804,1.9685 z m 8.4021,-2.2345 c 2.1495,-1.5353 3.239,-3.6655 3.239,-6.3211 h -1.4025 c 0,2.2067 -0.8741,3.9101 -2.6517,5.1798 z m 3.239,-6.3211 c 0,-2.704 -1.1147,-4.86027 -3.3155,-6.39567 L 88.2918,9.1232 c 1.8199,1.2697 2.7155,2.9938 2.7155,5.2454 z M 89.0943,7.97293 C 86.9327,6.46481 84.1375,5.74297 80.7687,5.74297 v 1.40254 c 3.1764,0 5.6641,0.68071 7.5231,1.97768 z M 80.7687,5.74297 c -3.3677,0 -6.1436,0.72141 -8.2619,2.23444 l 0.8152,1.1413 c 1.8089,-1.29206 4.2691,-1.9732 7.4467,-1.9732 z M 72.5003,7.98211 C 70.394,9.5233 69.3379,11.6785 69.3379,14.3686 h 1.4026 c 0,-2.2655 0.8607,-3.9907 2.588,-5.25459 z m -3.1624,6.38649 c 0,2.6415 1.0309,4.7704 3.0856,6.3115 l 0.8416,-1.1221 c -1.6854,-1.264 -2.5246,-2.9687 -2.5246,-5.1894 z m 3.0923,6.3164 c 2.0778,1.5204 4.8837,2.2392 8.3385,2.2392 v -1.4026 c -3.2774,0 -5.7545,-0.6838 -7.5103,-1.9685 z"
     fill="#000000"
     mask="url(#path-1-outside-1_1_1318)"
     id="path2"
     transform="matrix(0.97019313,0,0,0.95455796,1.61575,0.9333722)" />
</svg>
