<?xml version="1.0" encoding="UTF-8" standalone="no"?>
<svg
   width="95"
   height="61"
   viewBox="0 0 95 61"
   fill="none"
   version="1.1"
   id="svg2"
   sodipodi:docname="5,0.svg"
   inkscape:version="1.3.2 (091e20e, 2023-11-25, custom)"
   xmlns:inkscape="http://www.inkscape.org/namespaces/inkscape"
   xmlns:sodipodi="http://sodipodi.sourceforge.net/DTD/sodipodi-0.dtd"
   xmlns="http://www.w3.org/2000/svg"
   xmlns:svg="http://www.w3.org/2000/svg">
  <defs
     id="defs2" />
  <sodipodi:namedview
     id="namedview2"
     pagecolor="#ffffff"
     bordercolor="#000000"
     borderopacity="0.25"
     inkscape:showpageshadow="2"
     inkscape:pageopacity="0.0"
     inkscape:pagecheckerboard="0"
     inkscape:deskcolor="#d1d1d1"
     inkscape:zoom="4.5614183"
     inkscape:cx="44.284471"
     inkscape:cy="8.4403572"
     inkscape:window-width="1920"
     inkscape:window-height="1001"
     inkscape:window-x="-9"
     inkscape:window-y="-9"
     inkscape:window-maximized="1"
     inkscape:current-layer="svg2" />
  <mask
     id="path-1-outside-1_1_1314"
     maskUnits="userSpaceOnUse"
     x="-1"
     y="-0.585938"
     width="96"
     height="63"
     fill="black">
    <rect
       fill="white"
       x="-1"
       y="-0.585938"
       width="96"
       height="63"
       id="rect1" />
    <path
       d="M18.7641 50.9751C15.3045 50.9751 11.9384 50.4374 8.66578 49.3622C5.43992 48.2869 2.79846 46.8376 0.741389 45.0143L3.96725 39.4742C5.60355 41.017 7.73074 42.2793 10.3488 43.2611C12.9669 44.2429 15.7486 44.7338 18.694 44.7338C22.4341 44.7338 25.3093 43.939 27.3196 42.3494C29.33 40.7599 30.3351 38.6327 30.3351 35.9678C30.3351 34.1445 29.891 32.555 29.0027 31.1992C28.1144 29.8434 26.5716 28.8149 24.3743 28.1136C22.2237 27.3656 19.255 26.9915 15.4681 26.9915H4.31788L6.91259 1.32495H34.6129V7.42602H9.5073L13.1539 3.98978L11.1202 24.2566L7.47361 20.8905H16.9408C21.8497 20.8905 25.8002 21.5216 28.7923 22.7839C31.7844 24.0462 33.9584 25.7994 35.3142 28.0435C36.6699 30.2408 37.3478 32.7887 37.3478 35.6873C37.3478 38.4924 36.6699 41.0638 35.3142 43.4013C33.9584 45.6922 31.9013 47.5388 29.1429 48.9414C26.4314 50.2972 22.9717 50.9751 18.7641 50.9751ZM41.4306 60.7929L44.9369 46.6272L45.8486 50.6946C44.4928 50.6946 43.3474 50.2738 42.4123 49.4323C41.5241 48.5908 41.0799 47.4453 41.0799 45.996C41.0799 44.5935 41.5241 43.4481 42.4123 42.5598C43.3474 41.6715 44.4694 41.2274 45.7785 41.2274C47.1343 41.2274 48.2329 41.6949 49.0744 42.6299C49.916 43.5182 50.3367 44.6402 50.3367 45.996C50.3367 46.4636 50.29 46.9311 50.1965 47.3986C50.1497 47.8194 50.0328 48.3336 49.8458 48.9414C49.7056 49.5024 49.4718 50.2037 49.1446 51.0452L45.8486 60.7929H41.4306ZM74.0989 50.9751C70.2653 50.9751 66.8291 49.9933 63.7902 48.0297C60.7981 46.0662 58.4138 43.2143 56.6372 39.4742C54.9074 35.7341 54.0425 31.1992 54.0425 25.8695C54.0425 20.5398 54.9074 16.0049 56.6372 12.2648C58.4138 8.52468 60.7981 5.67284 63.7902 3.70928C66.8291 1.74571 70.2653 0.763931 74.0989 0.763931C77.8858 0.763931 81.2987 1.74571 84.3375 3.70928C87.3764 5.67284 89.7607 8.52468 91.4905 12.2648C93.2203 16.0049 94.0852 20.5398 94.0852 25.8695C94.0852 31.1992 93.2203 35.7341 91.4905 39.4742C89.7607 43.2143 87.3764 46.0662 84.3375 48.0297C81.2987 49.9933 77.8858 50.9751 74.0989 50.9751ZM74.0989 44.7338C76.6703 44.7338 78.9143 44.0325 80.8312 42.6299C82.7947 41.2274 84.3141 39.1236 85.3894 36.3185C86.5115 33.5134 87.0725 30.0304 87.0725 25.8695C87.0725 21.7086 86.5115 18.2256 85.3894 15.4205C84.3141 12.6154 82.7947 10.5116 80.8312 9.10908C78.9143 7.70653 76.6703 7.00526 74.0989 7.00526C71.5276 7.00526 69.2602 7.70653 67.2966 9.10908C65.333 10.5116 63.7902 12.6154 62.6682 15.4205C61.5929 18.2256 61.0553 21.7086 61.0553 25.8695C61.0553 30.0304 61.5929 33.5134 62.6682 36.3185C63.7902 39.1236 65.333 41.2274 67.2966 42.6299C69.2602 44.0325 71.5276 44.7338 74.0989 44.7338Z"
       id="path1" />
  </mask>
  <path
     d="m 8.66578,49.3622 -0.22177,0.6652 0.00286,10e-4 z M 0.741389,45.0143 0.135366,44.6614 -0.15376,45.1579 0.276229,45.5391 Z M 3.96725,39.4742 4.44833,38.964 3.80567,38.358 3.36122,39.1213 Z m 6.38155,3.7869 0.2463,-0.6566 z m 16.9708,-0.9117 0.435,0.5501 z m 1.6831,-11.1502 0.5866,-0.3843 z m -4.6284,-3.0856 -0.2304,0.6623 0.0086,0.003 0.0086,0.0028 z M 4.31788,26.9915 3.62016,26.921 3.54214,27.6928 H 4.31788 Z M 6.91259,1.32495 V 0.623672 H 6.27864 L 6.21488,1.25441 Z m 27.70031,0 h 0.7013 V 0.623672 h -0.7013 z m 0,6.10107 V 8.1273 h 0.7013 V 7.42602 Z m -25.1056,0 L 9.02637,6.91564 7.74053,8.1273 H 9.5073 Z M 13.1539,3.98978 13.8517,4.0598 14.0391,2.1921 12.673,3.4794 Z m -2.0337,20.26682 -0.4756,0.5153 1.033,0.9536 0.1404,-1.3989 z M 7.47361,20.8905 V 20.1892 H 5.68 l 1.31795,1.2166 z m 27.84059,7.153 -0.6003,0.3626 0.0034,0.0056 z m 0,15.3578 0.6035,0.3572 0.0031,-0.0053 z m -6.1713,5.5401 0.3137,0.6272 0.0042,-0.0021 z m -10.3788,1.3324 c -3.3856,0 -6.6778,-0.5259 -9.87942,-1.5779 l -0.43781,1.3325 c 3.34353,1.0986 6.78363,1.648 10.31723,1.648 z M 8.88754,48.6969 C 5.73081,47.6446 3.17814,46.237 1.20655,44.4895 l -0.930321,1.0496 c 2.142541,1.899 4.872801,3.39 8.167781,4.4883 z m -7.54013,-3.3298 3.22586,-5.54 -1.21205,-0.7058 -3.225854,5.5401 z m 2.13875,-5.3827 c 1.71841,1.6203 3.93167,2.9265 6.61644,3.9333 l 0.4925,-1.3132 C 8.04366,41.6477 6.00253,40.4294 4.44833,38.964 Z m 6.61644,3.9333 c 2.701,1.0129 5.5665,1.5173 8.5914,1.5173 v -1.4025 c -2.8658,0 -5.5637,-0.4773 -8.0989,-1.428 z m 8.5914,1.5173 c 3.8279,0 6.8808,-0.812 9.0606,-2.5355 l -0.8699,-1.1002 c -1.8409,1.4556 -4.5384,2.2332 -8.1907,2.2332 z m 9.0606,-2.5355 c 2.1861,-1.7286 3.2818,-4.0623 3.2818,-6.9317 h -1.4026 c 0,2.4604 -0.9146,4.381 -2.7491,5.8315 z m 3.2818,-6.9317 c 0,-1.9422 -0.4749,-3.669 -1.4471,-5.1529 l -1.1732,0.7686 c 0.8044,1.2277 1.2177,2.68 1.2177,4.3843 z m -1.4471,-5.1529 c -1.0072,-1.5373 -2.7147,-2.6395 -5.0018,-3.3694 l -0.4264,1.3362 c 2.1075,0.6726 3.4856,1.6275 4.255,2.8018 z M 24.6047,27.4512 C 22.3471,26.666 19.2886,26.2903 15.4681,26.2903 v 1.4025 c 3.7533,0 6.6323,0.3723 8.6758,1.0831 z M 15.4681,26.2903 H 4.31788 v 1.4025 H 15.4681 Z M 5.0156,27.0621 7.61031,1.39548 6.21488,1.25441 3.62016,26.921 Z M 6.91259,2.02622 H 34.6129 V 0.623672 H 6.91259 Z M 33.9116,1.32495 v 6.10107 h 1.4026 V 1.32495 Z m 0.7013,5.3998 H 9.5073 V 8.1273 H 34.6129 Z M 9.98824,7.9364 13.6349,4.50016 12.673,3.4794 9.02637,6.91564 Z M 12.4562,3.91977 10.4225,24.1866 11.818,24.3266 13.8517,4.0598 Z M 11.5959,23.7413 7.94927,20.3752 6.99795,21.4058 10.6446,24.7719 Z M 7.47361,21.5917 H 16.9408 V 20.1892 H 7.47361 Z m 9.46719,0 c 4.8586,0 8.7056,0.6261 11.5789,1.8383 l 0.5452,-1.2922 C 25.954,20.8254 21.9001,20.1892 16.9408,20.1892 Z M 28.5197,23.43 c 2.8887,1.2187 4.9316,2.8863 6.1942,4.9761 l 1.2005,-0.7253 c -1.449,-2.3983 -3.754,-4.2371 -6.8495,-5.543 z m 6.1976,4.9817 c 1.2794,2.0735 1.9293,4.4907 1.9293,7.2756 h 1.4025 c 0,-3.0122 -0.7059,-5.6909 -2.1381,-8.0121 z m 1.9293,7.2756 c 0,2.6865 -0.6477,5.1357 -1.9391,7.3622 l 1.2133,0.7037 c 1.4202,-2.4487 2.1283,-5.1421 2.1283,-8.0659 z m -1.9359,7.3569 c -1.2776,2.1585 -3.2263,3.9199 -5.8856,5.2721 l 0.6357,1.2502 c 2.8574,-1.4529 5.0228,-3.3849 6.4569,-5.808 z m -5.8814,5.2699 c -2.5839,1.292 -5.9266,1.9597 -10.0652,1.9597 v 1.4026 c 4.2767,0 7.8532,-0.6882 10.6925,-2.1078 z m 12.6013,12.4788 -0.6808,-0.1685 -0.2153,0.8698 h 0.8961 z m 3.5063,-14.1657 0.6843,-0.1534 -1.365,-0.0151 z m 0.9117,4.0674 v 0.7012 h 0.8758 l -0.1915,-0.8546 z m -3.4363,-1.2623 -0.4823,0.5091 0.0066,0.0061 0.0066,0.006 z m 0,-6.8725 -0.483,-0.5084 -0.0065,0.0062 -0.0063,0.0063 z m 6.6621,0.0701 -0.5212,0.4692 0.006,0.0066 0.0061,0.0065 z m 1.1221,4.7687 -0.6877,-0.1375 -0.0059,0.0298 -0.0034,0.0302 z m -0.3507,1.5428 -0.6702,-0.2062 -0.0055,0.0179 -0.0046,0.0182 z m -0.7012,2.1038 -0.6536,-0.2542 -0.0057,0.0147 -0.0051,0.0149 z m -3.296,9.7477 v 0.7013 h 0.5031 l 0.1612,-0.4767 z m -3.7373,0.1685 3.5064,-14.1657 -1.3615,-0.337 -3.5064,14.1657 z m 2.1413,-14.1808 0.9117,4.0673 1.3686,-0.3067 -0.9117,-4.0674 z m 1.596,3.2127 c -1.1972,0 -2.1714,-0.3661 -2.9671,-1.0823 l -0.9383,1.0425 c 1.0743,0.9669 2.391,1.4423 3.9054,1.4423 z m -2.954,-1.0701 C 42.1718,48.2384 41.7812,47.2913 41.7812,45.996 h -1.4025 c 0,1.6034 0.4976,2.9471 1.5513,3.9454 z M 41.7812,45.996 c 0,-1.2402 0.3861,-2.1994 1.127,-2.9403 l -0.9917,-0.9918 c -1.0357,1.0357 -1.5378,2.3673 -1.5378,3.9321 z m 1.1141,-2.9278 c 0.8026,-0.7624 1.7509,-1.1395 2.8832,-1.1395 v -1.4026 c -1.4858,0 -2.7816,0.5111 -3.8492,1.5253 z m 2.8832,-1.1395 c 1.1743,0 2.0774,0.3955 2.7747,1.1704 l 1.0425,-0.9383 c -0.9857,-1.0952 -2.28,-1.6347 -3.8172,-1.6347 z m 2.7868,1.1835 c 0.7044,0.7435 1.0702,1.6864 1.0702,2.8838 h 1.4025 c 0,-1.5141 -0.4758,-2.8153 -1.4545,-3.8484 z m 1.0702,2.8838 c 0,0.4205 -0.0421,0.8419 -0.1267,1.2651 l 1.3753,0.275 c 0.1024,-0.5119 0.1539,-1.0255 0.1539,-1.5401 z m -0.136,1.3251 c -0.0401,0.3613 -0.1441,0.8296 -0.3239,1.4141 l 1.3405,0.4124 c 0.1942,-0.6311 0.324,-1.1913 0.3774,-1.6716 z m -0.334,1.4502 c -0.1303,0.5213 -0.3527,1.1923 -0.6745,2.0197 l 1.3072,0.5084 c 0.3327,-0.8556 0.5778,-1.5872 0.728,-2.1879 z m -0.6853,2.0493 -3.2959,9.7477 1.3286,0.4492 3.296,-9.7477 z m -2.6316,9.271 h -4.418 v 1.4026 h 4.418 z m 17.9416,-12.0619 -0.3847,0.5863 0.0041,0.0027 z m -7.153,-8.5555 -0.6365,0.2944 0.0031,0.0065 z m 0,-27.2094 -0.6334,-0.3009 -0.0031,0.0065 z m 7.153,-8.55552 -0.3806,-0.58903 -0.0041,0.00273 z m 20.5473,0 0.3806,-0.58901 z m 7.153,8.55552 0.6365,-0.2944 z m 0,27.2094 0.6365,0.2944 z m -7.153,8.5555 0.3806,0.589 z M 80.8312,42.6299 80.4235,42.0592 80.417,42.064 Z m 4.5582,-6.3114 -0.6511,-0.2605 -0.0037,0.0095 z m 0,-20.898 -0.6548,0.2511 0.0037,0.0094 z M 80.8312,9.10908 80.417,9.67506 80.4235,9.67973 Z m -13.5346,0 -0.4076,-0.57065 z m -4.6284,6.31142 -0.6512,-0.2604 -0.0036,0.0094 z m 0,20.898 -0.6549,0.251 0.0038,0.0094 z m 4.6284,6.3114 0.4076,-0.5706 z m 6.8023,7.6439 c -3.707,0 -7.0095,-0.9472 -9.9281,-2.8331 l -0.7612,1.178 c 3.1592,2.0413 6.7291,3.0577 10.6893,3.0577 z M 64.175,47.4434 c -2.8687,-1.8825 -5.1741,-4.6276 -6.9043,-8.2701 l -1.2669,0.6018 c 1.8229,3.8377 4.2861,6.7964 7.4017,8.8409 z M 57.2737,39.1798 C 55.5972,35.5549 54.7438,31.1262 54.7438,25.8695 h -1.4025 c 0,5.4027 0.8764,10.0438 2.6594,13.8991 z M 54.7438,25.8695 c 0,-5.2567 0.8534,-9.6853 2.5299,-13.3103 l -1.273,-0.5888 c -1.783,3.8553 -2.6594,8.4964 -2.6594,13.8991 z M 57.2707,12.5657 C 59.0009,8.92317 61.3063,6.17813 64.175,4.29558 L 63.4055,3.12298 C 60.2899,5.16755 57.8267,8.1262 56.0038,11.9639 Z M 64.1708,4.29829 C 67.0894,2.41245 70.3919,1.4652 74.0989,1.4652 V 0.0626583 c -3.9602,0 -7.5301,1.0163117 -10.6893,3.0576117 z M 74.0989,1.4652 c 3.6585,0 6.938,0.94632 9.858,2.83309 L 84.7181,3.12027 C 81.5604,1.0799 78.0142,0.0626583 74.0989,0.0626583 Z m 9.858,2.83309 c 2.9125,1.88193 5.2151,4.62405 6.8971,8.26091 l 1.273,-0.5888 C 90.3494,8.12703 87.8833,5.16547 84.7181,3.12027 Z m 6.8971,8.26091 c 1.6766,3.625 2.5299,8.0536 2.5299,13.3103 h 1.4026 c 0,-5.4027 -0.8764,-10.0438 -2.6595,-13.8991 z m 2.5299,13.3103 c 0,5.2567 -0.8533,9.6854 -2.5299,13.3103 l 1.273,0.5888 c 1.7831,-3.8553 2.6595,-8.4964 2.6595,-13.8991 z M 90.854,39.1798 c -1.682,3.6369 -3.9846,6.379 -6.8971,8.2609 l 0.7612,1.178 c 3.1652,-2.0452 5.6313,-5.0067 7.4089,-8.8501 z m -6.8971,8.2609 c -2.92,1.8868 -6.1995,2.8331 -9.858,2.8331 v 1.4026 c 3.9153,0 7.4615,-1.0173 10.6192,-3.0577 z m -9.858,-2.0057 c 2.7073,0 5.0993,-0.7413 7.1464,-2.2391 L 80.417,42.064 c -1.7865,1.3072 -3.8826,1.9685 -6.3181,1.9685 z m 7.1399,-2.2344 c 2.1002,-1.5002 3.693,-3.7291 4.8054,-6.6311 l -1.3096,-0.502 c -1.0381,2.7081 -2.4841,4.6868 -4.3111,5.9918 z m 4.8018,-6.6217 c 1.1651,-2.9128 1.7332,-6.4907 1.7332,-10.7094 h -1.4026 c 0,4.1031 -0.5539,7.4911 -1.6329,10.1885 z m 1.7332,-10.7094 c 0,-4.2187 -0.5681,-7.7966 -1.7332,-10.7094 l -1.3023,0.5209 c 1.079,2.6974 1.6329,6.0854 1.6329,10.1885 z m -1.7296,-10.7 C 84.9318,12.2675 83.339,10.0386 81.2388,8.53843 l -0.8153,1.1413 c 1.827,1.30497 3.273,3.28367 4.3111,5.99177 z M 81.2453,8.54313 C 79.1982,7.04528 76.8062,6.30399 74.0989,6.30399 v 1.40254 c 2.4355,0 4.5316,0.66126 6.3181,1.9685 z M 74.0989,6.30399 c -2.7073,0 -5.1194,0.74122 -7.2099,2.23444 l 0.8152,1.1413 c 1.8366,-1.31188 3.9594,-1.9732 6.3947,-1.9732 z M 66.889,8.53843 c -2.0973,1.49807 -3.7126,3.72327 -4.8719,6.62167 l 1.3022,0.5209 c 1.0847,-2.7118 2.555,-4.6942 4.3849,-6.00127 z m -4.8756,6.63107 c -1.1154,2.9096 -1.6594,6.484 -1.6594,10.7 h 1.4025 c 0,-4.1058 0.5313,-7.4974 1.5665,-10.198 z m -1.6594,10.7 c 0,4.216 0.544,7.7904 1.6594,10.7 l 1.3096,-0.502 c -1.0352,-2.7006 -1.5665,-6.0922 -1.5665,-10.198 z m 1.6631,10.7094 c 1.1593,2.8984 2.7746,5.1236 4.8719,6.6217 l 0.8152,-1.1413 C 65.8743,40.7522 64.404,38.7699 63.3193,36.058 Z m 4.8719,6.6217 c 2.0905,1.4932 4.5026,2.2344 7.2099,2.2344 v -1.4025 c -2.4353,0 -4.5581,-0.6613 -6.3947,-1.9732 z"
     fill="#000000"
     mask="url(#path-1-outside-1_1_1314)"
     id="path2"
     transform="matrix(0.9815269,0,0,0.9678818,0.8740798,0.8789327)" />
</svg>
