<svg width="64" height="22" viewBox="0 0 64 22" fill="none" xmlns="http://www.w3.org/2000/svg">
<path d="M15.7388 8.04325H8.40253V10.2248H13.6069C13.3561 13.2715 10.8103 14.5754 8.41507 14.5754C5.34261 14.5754 2.67145 12.1682 2.67145 8.78298C2.67145 5.48554 5.2172 2.9529 8.41507 2.9529C10.8856 2.9529 12.3403 4.52013 12.3403 4.52013L13.8702 2.94037C13.8702 2.94037 11.9139 0.758789 8.35236 0.758789C3.81265 0.758789 0.30127 4.59536 0.30127 8.73283C0.30127 12.7951 3.612 16.7445 8.47777 16.7445C12.7541 16.7445 15.8893 13.8106 15.8893 9.47256C15.8767 8.56984 15.7388 8.04325 15.7388 8.04325ZM21.7583 6.46349C18.7486 6.46349 16.5916 8.8206 16.5916 11.5538C16.5916 14.3372 18.6859 16.7319 21.7959 16.7319C24.605 16.7319 26.9125 14.5754 26.9125 11.6165C26.9125 8.21878 24.2288 6.46349 21.7583 6.46349ZM21.7834 8.48208C23.2632 8.48208 24.6677 9.67317 24.6677 11.604C24.6677 13.4847 23.2757 14.7259 21.7834 14.7259C20.1406 14.7259 18.8489 13.4094 18.8489 11.5914C18.8363 9.81108 20.1155 8.48208 21.7834 8.48208ZM32.9947 6.46349C29.985 6.46349 27.828 8.8206 27.828 11.5538C27.828 14.3372 29.9223 16.7319 33.0324 16.7319C35.8415 16.7319 38.1489 14.5754 38.1489 11.6165C38.1489 8.21878 35.4652 6.46349 32.9947 6.46349ZM33.0198 8.48208C34.4996 8.48208 35.9042 9.67317 35.9042 11.604C35.9042 13.4847 34.5121 14.7259 33.0198 14.7259C31.377 14.7259 30.0853 13.4094 30.0853 11.5914C30.0728 9.81108 31.3519 8.48208 33.0198 8.48208ZM44.0054 6.47603C41.2465 6.47603 39.0769 8.89582 39.0769 11.604C39.0769 14.7008 41.5976 16.7445 43.9678 16.7445C45.4351 16.7445 46.2126 16.1677 46.7894 15.4907V16.5063C46.7894 18.2741 45.7109 19.3398 44.0932 19.3398C42.5256 19.3398 41.7356 18.1738 41.4597 17.5093L39.4908 18.3368C40.1931 19.8163 41.5976 21.3584 44.1183 21.3584C46.8647 21.3584 48.959 19.6282 48.959 16.0048V6.77693H46.802V7.64204C46.1122 6.93993 45.2093 6.47603 44.0054 6.47603ZM44.2061 8.48208C45.5605 8.48208 46.9525 9.63555 46.9525 11.6165C46.9525 13.6226 45.5605 14.7259 44.181 14.7259C42.7137 14.7259 41.3343 13.5348 41.3343 11.6291C41.3343 9.66063 42.7639 8.48208 44.2061 8.48208ZM58.5149 6.46349C55.9065 6.46349 53.7244 8.53223 53.7244 11.5914C53.7244 14.8262 56.1573 16.7445 58.7658 16.7445C60.9353 16.7445 62.2771 15.5534 63.0672 14.4877L61.2864 13.3091C60.8224 14.0238 60.0574 14.7259 58.7658 14.7259C57.3236 14.7259 56.6589 13.936 56.2451 13.1712L63.1299 10.3126L62.7662 9.47256C62.1266 7.83011 60.5716 6.46349 58.5149 6.46349ZM58.6027 8.43192C59.5433 8.43192 60.2205 8.93344 60.5089 9.53525L55.9065 11.4535C55.7058 9.97407 57.1104 8.43192 58.6027 8.43192Z" fill="#010202"/>
<path d="M50.4387 16.4443H52.696V1.29858H50.4387V16.4443Z" fill="#010202"/>
</svg>
