<svg width="17" height="16" viewBox="0 0 17 16" fill="none" xmlns="http://www.w3.org/2000/svg">
<path d="M1.61538 16C1.16794 16 0.78685 15.8426 0.4721 15.5279C0.157367 15.2132 0 14.8321 0 14.3846V1.61537C0 1.16794 0.157367 0.786849 0.4721 0.472099C0.78685 0.157366 1.16794 0 1.61538 0H14.3846C14.8321 0 15.2132 0.157366 15.5279 0.472099C15.8426 0.786849 16 1.16794 16 1.61537V4.55768H15V1.61537C15 1.43589 14.9423 1.28846 14.8269 1.17307C14.7115 1.05769 14.5641 1 14.3846 1H1.61538C1.43589 1 1.28846 1.05769 1.17308 1.17307C1.05769 1.28846 1 1.43589 1 1.61537V14.3846C1 14.5641 1.05769 14.7115 1.17308 14.8269C1.28846 14.9423 1.43589 15 1.61538 15H14.3846C14.5641 15 14.7115 14.9423 14.8269 14.8269C14.9423 14.7115 15 14.5641 15 14.3846V11.4423H16V14.3846C16 14.8321 15.8426 15.2132 15.5279 15.5279C15.2132 15.8426 14.8321 16 14.3846 16H1.61538ZM9.61537 12C9.16794 12 8.78685 11.8426 8.4721 11.5279C8.15737 11.2132 8 10.8321 8 10.3846V5.61538C8 5.16794 8.15737 4.78685 8.4721 4.4721C8.78685 4.15737 9.16794 4 9.61537 4H15.3846C15.8321 4 16.2132 4.15737 16.5279 4.4721C16.8426 4.78685 17 5.16794 17 5.61538V10.3846C17 10.8321 16.8426 11.2132 16.5279 11.5279C16.2132 11.8426 15.8321 12 15.3846 12H9.61537ZM15.3846 11C15.5641 11 15.7115 10.9423 15.8269 10.8269C15.9423 10.7115 16 10.5641 16 10.3846V5.61538C16 5.43589 15.9423 5.28846 15.8269 5.17307C15.7115 5.05769 15.5641 5 15.3846 5H9.61537C9.43589 5 9.28846 5.05769 9.17307 5.17307C9.05769 5.28846 9 5.43589 9 5.61538V10.3846C9 10.5641 9.05769 10.7115 9.17307 10.8269C9.28846 10.9423 9.43589 11 9.61537 11H15.3846ZM12 9.5C12.4167 9.5 12.7708 9.35417 13.0625 9.0625C13.3542 8.77083 13.5 8.41667 13.5 8C13.5 7.58333 13.3542 7.22917 13.0625 6.9375C12.7708 6.64583 12.4167 6.5 12 6.5C11.5833 6.5 11.2292 6.64583 10.9375 6.9375C10.6458 7.22917 10.5 7.58333 10.5 8C10.5 8.41667 10.6458 8.77083 10.9375 9.0625C11.2292 9.35417 11.5833 9.5 12 9.5Z" fill="#242424"/>
</svg>
