<svg width="25" height="25" viewBox="0 0 25 25" fill="none" xmlns="http://www.w3.org/2000/svg">
<mask id="mask0_4255_4586" style="mask-type:alpha" maskUnits="userSpaceOnUse" x="0" y="0" width="25" height="25">
<rect x="24.3477" y="0.407227" width="24" height="24" transform="rotate(90 24.3477 0.407227)" fill="#D9D9D9"/>
</mask>
<g mask="url(#mask0_4255_4586)">
<path d="M13.1081 17.5787C13.1081 17.9903 12.7744 18.324 12.3628 18.324C11.9512 18.324 11.6175 17.9903 11.6175 17.5787L11.6175 5.74529C11.6175 5.33368 11.9512 5 12.3628 5C12.7744 5 13.1081 5.33368 13.1081 5.74529L13.1081 17.5787ZM19.2529 14.6422C19.2529 14.8905 19.1313 15.1231 18.9273 15.2648L12.946 19.42C12.6042 19.6574 12.1511 19.6584 11.8083 19.4223L5.77126 15.2652C5.56524 15.1234 5.44219 14.8892 5.44219 14.6391C5.44219 14.0309 6.12097 13.6689 6.62602 14.0078L11.8183 17.4921C12.1566 17.7191 12.5988 17.7182 12.9361 17.4899L18.0698 14.0144C18.5732 13.6736 19.2529 14.0342 19.2529 14.6422Z" fill="#242424"/>
</g>
</svg>
