<svg width="25" height="24" viewBox="0 0 25 24" fill="none" xmlns="http://www.w3.org/2000/svg">
<path d="M1.03516 12C1.03516 5.64873 6.18388 0.5 12.5352 0.5C18.8864 0.5 24.0352 5.64873 24.0352 12C24.0352 18.3513 18.8864 23.5 12.5352 23.5C6.18388 23.5 1.03516 18.3513 1.03516 12Z" stroke="#242424"/>
<path d="M13.6923 10.8429C12.7494 9.87 12.6809 8.65714 12.5994 6C15.0766 6 16.7866 6.00857 17.6694 6.86571C18.5266 7.74857 18.5352 9.54 18.5352 11.9357C15.878 11.85 14.6652 11.7857 13.6923 10.8429M13.6923 13.1571C12.7494 14.13 12.6809 15.3429 12.5994 18C15.0766 18 16.7866 17.9914 17.6694 17.1343C18.5266 16.2514 18.5352 14.46 18.5352 12.0643C15.878 12.15 14.6652 12.2143 13.6923 13.1571V13.1571ZM6.53516 12.0643C6.53516 14.46 6.54373 16.2514 7.40087 17.1343C8.28373 17.9914 9.99373 18 12.4709 18C12.3852 15.3429 12.3209 14.13 11.378 13.1571C10.4052 12.2143 9.1923 12.1457 6.53516 12.0643V12.0643ZM12.4709 6C9.99801 6 8.28373 6.00857 7.40087 6.86571C6.54373 7.74857 6.53516 9.54 6.53516 11.9357C9.1923 11.85 10.4052 11.7857 11.378 10.8429C12.3209 9.87 12.3894 8.65714 12.4709 6V6Z" stroke="#242424"/>
<path d="M18.5352 12.0643V11.9357C15.878 11.85 14.6652 11.7857 13.6923 10.8429C12.7494 9.87 12.6809 8.65714 12.5994 6H12.4709C12.3852 8.65714 12.3209 9.87 11.378 10.8429C10.4052 11.7857 9.1923 11.8543 6.53516 11.9357V12.0643C9.1923 12.15 10.4052 12.2143 11.378 13.1571C12.3209 14.13 12.3894 15.3429 12.4709 18H12.5994C12.6852 15.3429 12.7494 14.13 13.6923 13.1571C14.6652 12.2143 15.878 12.1457 18.5352 12.0643" stroke="#242424"/>
</svg>
