<svg width="25" height="23" viewBox="0 0 25 23" fill="none" xmlns="http://www.w3.org/2000/svg">
<path d="M1.03418 11.6799C1.03418 5.90101 5.71888 1.21631 11.4977 1.21631H13.5706C19.3495 1.21631 24.0342 5.90101 24.0342 11.6799C24.0342 17.4587 19.3495 22.1434 13.5706 22.1434H11.4977C5.71888 22.1434 1.03418 17.4587 1.03418 11.6799Z" stroke="black"/>
<path d="M13.6913 12.7372C12.7485 13.6261 12.6799 14.7342 12.5985 17.1618C15.0756 17.1618 16.7856 17.154 17.6685 16.3709C18.5256 15.5643 18.5342 13.9276 18.5342 11.7388C15.877 11.8171 14.6642 11.8758 13.6913 12.7372ZM6.53418 11.7388C6.53418 13.9276 6.54275 15.5643 7.39989 16.3709C8.28275 17.154 9.99275 17.1618 12.4699 17.1618C12.3842 14.7342 12.3199 13.6261 11.377 12.7372C10.4042 11.8758 9.19132 11.8132 6.53418 11.7388ZM12.4699 6.19824C9.99704 6.19824 8.28275 6.20607 7.39989 6.98918C6.54275 7.79579 6.53418 9.43249 6.53418 11.6213C9.19132 11.543 10.4042 11.4842 11.377 10.6228C12.3199 9.73399 12.3885 8.62589 12.4699 6.19824ZM13.6913 10.6228C12.7485 9.73399 12.6799 8.62589 12.5985 6.19824C15.0756 6.19824 16.7856 6.20607 17.6685 6.98918C18.5256 7.79579 18.5342 9.43249 18.5342 11.6213C15.877 11.543 14.6642 11.4842 13.6913 10.6228Z" fill="white"/>
<path d="M13.6913 10.6228C12.7485 9.73399 12.6799 8.62589 12.5985 6.19824C15.0756 6.19824 16.7856 6.20607 17.6685 6.98918C18.5256 7.79579 18.5342 9.43249 18.5342 11.6213C15.877 11.543 14.6642 11.4842 13.6913 10.6228M13.6913 12.7372C12.7485 13.6261 12.6799 14.7342 12.5985 17.1618C15.0756 17.1618 16.7856 17.154 17.6685 16.3709C18.5256 15.5643 18.5342 13.9276 18.5342 11.7388C15.877 11.8171 14.6642 11.8758 13.6913 12.7372V12.7372ZM6.53418 11.7388C6.53418 13.9276 6.54275 15.5643 7.39989 16.3709C8.28275 17.154 9.99275 17.1618 12.4699 17.1618C12.3842 14.7342 12.3199 13.6261 11.377 12.7372C10.4042 11.8758 9.19132 11.8132 6.53418 11.7388V11.7388ZM12.4699 6.19824C9.99704 6.19824 8.28275 6.20607 7.39989 6.98918C6.54275 7.79579 6.53418 9.43249 6.53418 11.6213C9.19132 11.543 10.4042 11.4842 11.377 10.6228C12.3199 9.73399 12.3885 8.62589 12.4699 6.19824V6.19824Z" stroke="black"/>
<path d="M18.5342 11.7388V11.6213C15.877 11.543 14.6642 11.4842 13.6913 10.6228C12.7485 9.73399 12.6799 8.62589 12.5985 6.19824H12.4699C12.3842 8.62589 12.3199 9.73399 11.377 10.6228C10.4042 11.4842 9.19132 11.5469 6.53418 11.6213V11.7388C9.19132 11.8171 10.4042 11.8758 11.377 12.7372C12.3199 13.6261 12.3885 14.7342 12.4699 17.1618H12.5985C12.6842 14.7342 12.7485 13.6261 13.6913 12.7372C14.6642 11.8758 15.877 11.8132 18.5342 11.7388" stroke="black"/>
</svg>
