<svg width="25" height="24" viewBox="0 0 25 24" fill="none" xmlns="http://www.w3.org/2000/svg">
<rect x="1.03516" y="0.5" width="23" height="23" rx="11.5" stroke="#242424"/>
<path d="M13.1246 16.1998C8.61463 16.1998 6.04224 13.0467 5.93506 7.7998H8.19415C8.26835 11.6509 9.93381 13.2821 11.253 13.6184V7.7998H13.3802V11.1211C14.6828 10.9782 16.0515 9.46467 16.5132 7.7998H18.6404C18.4664 8.66325 18.1196 9.4808 17.6216 10.2013C17.1237 10.9218 16.4853 11.5298 15.7464 11.9872C16.5712 12.4051 17.2996 12.9967 17.8838 13.7229C18.4679 14.449 18.8944 15.2932 19.1351 16.1998H16.7935C16.5774 15.4124 16.1383 14.7075 15.5311 14.1735C14.9239 13.6395 14.1757 13.3002 13.3802 13.198V16.1998H13.1246V16.1998Z" stroke="#242424"/>
</svg>
