<svg width="25" height="23" viewBox="0 0 25 23" fill="none" xmlns="http://www.w3.org/2000/svg">
<rect x="1.44238" y="1.21631" width="23" height="20.9271" rx="10.4636" stroke="black"/>
<path d="M13.5318 15.5173C9.02186 15.5173 6.44947 12.6365 6.34229 7.84277H8.60137C8.67558 11.3612 10.341 12.8516 11.6602 13.1588V7.84277H13.7874V10.8772C15.0901 10.7466 16.4587 9.36384 16.9204 7.84277H19.0476C18.8736 8.63164 18.5268 9.37858 18.0288 10.0369C17.5309 10.6951 16.8925 11.2506 16.1537 11.6685C16.9784 12.0503 17.7069 12.5908 18.291 13.2542C18.8751 13.9177 19.3016 14.689 19.5423 15.5173H17.2007C16.9847 14.7978 16.5455 14.1538 15.9383 13.666C15.3311 13.1781 14.5829 12.8681 13.7874 12.7747V15.5173H13.5318V15.5173Z" stroke="black"/>
</svg>
