<svg width="25" height="22" viewBox="0 0 25 22" fill="none" xmlns="http://www.w3.org/2000/svg">
<rect x="1.0625" y="0.491699" width="23" height="20.9271" rx="10.4636" stroke="black"/>
<path fill-rule="evenodd" clip-rule="evenodd" d="M7.3199 14.8235C7.08454 14.7599 6.86979 14.6467 6.69378 14.4935C6.51776 14.3403 6.38564 14.1516 6.30857 13.9433C5.86815 12.8668 5.73766 8.37148 6.58587 7.48406C6.86817 7.19538 7.26674 7.01764 7.69506 6.98943C9.97055 6.77121 17.0009 6.80031 17.8083 7.06217C18.0354 7.12788 18.2429 7.23858 18.4152 7.38596C18.5875 7.53335 18.7202 7.71361 18.8033 7.91323C19.2845 9.02614 19.3008 13.0705 18.7381 14.1397C18.5888 14.4181 18.3389 14.6435 18.0285 14.7798C17.1803 15.1581 8.4454 15.1508 7.3199 14.8235ZM10.9329 12.714L15.0109 10.8228L10.9329 8.91703V12.714Z" fill="white" stroke="black"/>
</svg>
