<svg width="25" height="24" viewBox="0 0 25 24" fill="none" xmlns="http://www.w3.org/2000/svg">
<rect x="1.03516" y="0.5" width="23" height="23" rx="11.5" stroke="#242424"/>
<path fill-rule="evenodd" clip-rule="evenodd" d="M7.29255 16.2341C7.05719 16.1645 6.84245 16.0406 6.66643 15.8729C6.49042 15.7053 6.3583 15.4987 6.28123 15.2707C5.84081 14.0924 5.71032 9.17216 6.55853 8.20084C6.84082 7.88487 7.23939 7.69033 7.66772 7.65946C9.9432 7.42061 16.9735 7.45245 17.781 7.73907C18.0081 7.81099 18.2156 7.93215 18.3879 8.09347C18.5602 8.25479 18.6929 8.45209 18.776 8.67058C19.2572 9.8887 19.2735 14.3153 18.7107 15.4857C18.5615 15.7903 18.3115 16.0371 18.0012 16.1863C17.153 16.6003 8.41806 16.5924 7.29255 16.2341V16.2341ZM10.9056 13.9252L14.9835 11.8552L10.9056 9.76928V13.9252Z" stroke="#242424"/>
</svg>
