<svg width="52" height="12" viewBox="0 0 52 12" fill="none" xmlns="http://www.w3.org/2000/svg">
<path d="M49.1247 5.38353C49.4525 5.38353 49.7183 5.6493 49.7183 5.97714C49.7183 6.30498 49.4525 6.57075 49.1247 6.57075H1.64439C1.31655 6.57075 1.05078 6.30498 1.05078 5.97714C1.05078 5.6493 1.31655 5.38353 1.64439 5.38353H49.1247ZM46.4675 0.489258C46.6655 0.489258 46.8526 0.580587 46.9743 0.736799L50.5735 5.35284C50.8543 5.71307 50.8554 6.21782 50.5761 6.57924L46.9776 11.2353C46.8538 11.3955 46.6628 11.4893 46.4604 11.4893C45.9211 11.4893 45.6138 10.8731 45.9382 10.4423L48.8567 6.56732C49.1253 6.21079 49.125 5.71946 48.8561 5.36322L45.9544 1.51928C45.6348 1.0958 45.9369 0.489258 46.4675 0.489258Z" fill="#242424" stroke="#242424" stroke-width="0.3"/>
</svg>
