<svg width="64" height="14" viewBox="0 0 64 14" fill="none" xmlns="http://www.w3.org/2000/svg">
<path d="M6.84888 0.686523L8.2664 5.0492H12.8536L9.14247 7.74548L10.56 12.1082L6.84888 9.41187L3.13776 12.1082L4.55528 7.74548L0.844172 5.0492H5.43136L6.84888 0.686523Z" fill="#242424"/>
<path d="M19.4763 0.686523L20.8938 5.0492H25.481L21.7699 7.74548L23.1874 12.1082L19.4763 9.41187L15.7652 12.1082L17.1827 7.74548L13.4716 5.0492H18.0588L19.4763 0.686523Z" fill="#242424"/>
<path d="M32.1038 0.686523L33.5213 5.0492H38.1085L34.3974 7.74548L35.8149 12.1082L32.1038 9.41187L28.3926 12.1082L29.8102 7.74548L26.0991 5.0492H30.6862L32.1038 0.686523Z" fill="#242424"/>
<path d="M44.7312 0.686523L46.1487 5.0492H50.7359L47.0248 7.74548L48.4423 12.1082L44.7312 9.41187L41.0201 12.1082L42.4376 7.74548L38.7265 5.0492H43.3137L44.7312 0.686523Z" fill="#242424"/>
<path d="M57.3582 0.686523L58.7757 5.0492H63.3629L59.6517 7.74548L61.0693 12.1082L57.3582 9.41187L53.647 12.1082L55.0646 7.74548L51.3534 5.0492H55.9406L57.3582 0.686523Z" fill="#242424"/>
</svg>
