<svg width="10" height="73" viewBox="0 0 10 73" fill="none" xmlns="http://www.w3.org/2000/svg">
<path d="M9.03502 68.4109C9.03502 69.0109 8.92702 69.5669 8.71102 70.0789C8.49502 70.5909 8.19502 71.0389 7.81102 71.4229C7.41902 71.8069 6.96702 72.1069 6.45502 72.3229C5.94302 72.5309 5.39102 72.6349 4.79902 72.6349C4.20702 72.6349 3.65502 72.5269 3.14302 72.3109C2.63102 72.0949 2.18302 71.7949 1.79902 71.4109C1.40702 71.0269 1.10302 70.5789 0.887023 70.0669C0.671023 69.5469 0.563023 68.9869 0.563023 68.3869C0.563023 67.7869 0.671023 67.2309 0.887022 66.7189C1.09502 66.1989 1.39102 65.7509 1.77502 65.3749C2.15902 64.9909 2.60702 64.6949 3.11902 64.4869C3.62302 64.2709 4.17502 64.1629 4.77502 64.1629C5.37502 64.1629 5.93502 64.2709 6.45502 64.4869C6.96702 64.7029 7.41902 65.0069 7.81102 65.3989C8.19502 65.7829 8.49502 66.2309 8.71102 66.7429C8.92702 67.2549 9.03502 67.8109 9.03502 68.4109ZM8.49502 68.4109C8.49502 67.8909 8.39902 67.4069 8.20702 66.9589C8.01502 66.5109 7.75102 66.1189 7.41502 65.7829C7.07902 65.4469 6.68702 65.1869 6.23902 65.0029C5.78302 64.8189 5.29502 64.7269 4.77502 64.7269C4.25502 64.7269 3.77102 64.8189 3.32302 65.0029C2.87502 65.1869 2.48702 65.4429 2.15902 65.7709C1.83102 66.0989 1.57502 66.4869 1.39102 66.9349C1.19902 67.3749 1.10302 67.8589 1.10302 68.3869C1.10302 68.9149 1.19902 69.4069 1.39102 69.8629C1.57502 70.3109 1.83902 70.6989 2.18302 71.0269C2.51902 71.3549 2.91102 71.6109 3.35902 71.7949C3.79902 71.9789 4.27902 72.0709 4.79902 72.0709C5.31902 72.0709 5.80302 71.9789 6.25102 71.7949C6.69902 71.6109 7.09102 71.3549 7.42702 71.0269C7.76302 70.6989 8.02702 70.3109 8.21902 69.8629C8.40302 69.4149 8.49502 68.9309 8.49502 68.4109ZM7.27102 68.2789C7.27102 68.7669 7.16702 69.2029 6.95902 69.5869C6.75102 69.9709 6.46302 70.2709 6.09502 70.4869C5.71902 70.7029 5.28702 70.8109 4.79902 70.8109C4.31102 70.8109 3.88302 70.7029 3.51502 70.4869C3.13902 70.2709 2.84702 69.9709 2.63902 69.5869C2.43102 69.2029 2.32702 68.7669 2.32702 68.2789C2.32702 67.8549 2.41502 67.4749 2.59102 67.1389C2.75902 66.7949 2.99502 66.5269 3.29902 66.3349L3.79102 67.0189C3.56702 67.1709 3.40302 67.3589 3.29902 67.5829C3.19502 67.7989 3.14302 68.0349 3.14302 68.2909C3.14302 68.6029 3.21502 68.8789 3.35902 69.1189C3.49502 69.3509 3.68702 69.5389 3.93502 69.6829C4.17502 69.8269 4.46302 69.8989 4.79902 69.8989C5.13502 69.8989 5.42702 69.8269 5.67502 69.6829C5.91502 69.5389 6.10702 69.3509 6.25102 69.1189C6.38702 68.8789 6.45502 68.6029 6.45502 68.2909C6.45502 68.0349 6.40302 67.7989 6.29902 67.5829C6.19502 67.3589 6.03102 67.1709 5.80702 67.0189L6.28702 66.3349C6.59102 66.5269 6.83102 66.7949 7.00702 67.1389C7.18302 67.4749 7.27102 67.8549 7.27102 68.2789ZM8.99902 59.0438L0.599022 59.0438L0.599022 58.5278L7.33102 54.6278L7.33102 54.9038L0.599022 51.0158L0.599022 50.5118L8.99902 50.4998L8.99902 51.0998L1.52302 51.1118L1.52302 50.9438L7.88302 54.6278L7.88302 54.9278L1.52302 58.6238L1.52302 58.4438L8.99902 58.4438L8.99902 59.0438ZM4.46302 47.0312L4.46302 42.4832L5.00302 42.4832L5.00302 47.0312L4.46302 47.0312ZM8.44702 46.9592L8.44702 41.7752L8.99902 41.7752L8.99902 47.5712L0.599022 47.5712L0.599021 41.9552L1.15102 41.9552L1.15102 46.9592L8.44702 46.9592ZM8.99902 39.5438L0.599021 39.5438L0.599021 36.2198C0.599021 35.3318 0.779021 34.5518 1.13902 33.8798C1.49902 33.2078 1.99502 32.6878 2.62702 32.3198C3.25902 31.9438 3.98302 31.7558 4.79902 31.7558C5.61502 31.7558 6.33902 31.9438 6.97102 32.3198C7.60302 32.6878 8.09902 33.2078 8.45902 33.8798C8.81902 34.5518 8.99902 35.3318 8.99902 36.2198L8.99902 39.5438ZM8.44702 38.9318L8.44702 36.2678C8.44702 35.4758 8.29102 34.7878 7.97902 34.2038C7.66702 33.6198 7.23902 33.1678 6.69502 32.8478C6.14302 32.5278 5.51102 32.3678 4.79902 32.3678C4.08702 32.3678 3.45902 32.5278 2.91502 32.8478C2.36302 33.1678 1.93102 33.6198 1.61902 34.2038C1.30702 34.7878 1.15102 35.4758 1.15102 36.2678L1.15102 38.9318L8.44702 38.9318ZM8.99902 29.6297L0.599021 29.6297L0.599021 29.0177L8.99902 29.0177L8.99902 29.6297ZM9.05902 22.5387C9.05902 23.1627 8.95502 23.7427 8.74702 24.2787C8.53102 24.8067 8.23102 25.2667 7.84702 25.6587C7.46302 26.0507 7.01502 26.3547 6.50302 26.5707C5.98302 26.7867 5.41502 26.8947 4.79902 26.8947C4.18302 26.8947 3.61902 26.7867 3.10702 26.5707C2.58702 26.3547 2.13502 26.0507 1.75102 25.6587C1.36702 25.2587 1.07102 24.7947 0.863021 24.2667C0.647021 23.7387 0.539021 23.1627 0.539021 22.5387C0.539021 21.9467 0.635021 21.3947 0.827021 20.8827C1.01902 20.3627 1.31102 19.9187 1.70302 19.5507L2.09902 19.9347C1.74702 20.2947 1.49502 20.6947 1.34302 21.1347C1.18302 21.5667 1.10302 22.0267 1.10302 22.5147C1.10302 23.0507 1.19502 23.5507 1.37902 24.0147C1.56302 24.4707 1.82302 24.8707 2.15902 25.2147C2.49502 25.5507 2.88702 25.8147 3.33502 26.0067C3.78302 26.1907 4.27102 26.2827 4.79902 26.2827C5.32702 26.2827 5.81502 26.1907 6.26302 26.0067C6.71102 25.8147 7.10302 25.5507 7.43902 25.2147C7.77502 24.8707 8.03502 24.4707 8.21902 24.0147C8.40302 23.5507 8.49502 23.0507 8.49502 22.5147C8.49502 22.0267 8.41902 21.5667 8.26702 21.1347C8.10702 20.6947 7.84702 20.2947 7.48702 19.9347L7.88302 19.5507C8.27502 19.9187 8.57102 20.3627 8.77102 20.8827C8.96302 21.3947 9.05902 21.9467 9.05902 22.5387ZM8.99902 17.5008L0.59902 17.5008L0.59902 14.4888C0.59902 13.7848 0.71102 13.1808 0.93502 12.6768C1.15902 12.1728 1.48302 11.7848 1.90702 11.5128C2.32302 11.2408 2.83102 11.1048 3.43102 11.1048C4.01502 11.1048 4.51902 11.2408 4.94302 11.5128C5.35902 11.7848 5.68302 12.1728 5.91502 12.6768C6.13902 13.1808 6.25102 13.7848 6.25102 14.4888L6.25102 17.1648L5.96302 16.8888L8.99902 16.8888L8.99902 17.5008ZM8.99902 11.6688L5.95102 13.8528L5.95102 13.1568L8.99902 10.9728L8.99902 11.6688ZM5.99902 16.8888L5.71102 17.1648L5.71102 14.4888C5.71102 13.5848 5.51102 12.9008 5.11102 12.4368C4.71102 11.9648 4.15102 11.7288 3.43102 11.7288C2.70302 11.7288 2.14302 11.9648 1.75102 12.4368C1.35102 12.9008 1.15102 13.5848 1.15102 14.4888L1.15102 17.1648L0.851021 16.8888L5.99902 16.8888ZM8.99902 8.86412L0.59902 8.86412L0.59902 8.25212L8.99902 8.25212L8.99902 8.86412ZM9.05902 3.11706C9.05902 3.74106 8.95502 4.33306 8.74702 4.89306C8.53102 5.44506 8.25502 5.87306 7.91902 6.17706L7.46302 5.90106C7.75902 5.61306 8.01102 5.22106 8.21902 4.72506C8.41902 4.22106 8.51902 3.68906 8.51902 3.12906C8.51902 2.56906 8.44702 2.11306 8.30302 1.76106C8.15102 1.40106 7.95102 1.13706 7.70302 0.969062C7.45502 0.793062 7.17902 0.705062 6.87502 0.705062C6.51502 0.705062 6.22702 0.801062 6.01102 0.993062C5.79502 1.18506 5.62302 1.43706 5.49502 1.74906C5.36702 2.06106 5.25902 2.40106 5.17102 2.76906C5.08302 3.13706 4.99102 3.50906 4.89502 3.88506C4.79102 4.26106 4.65902 4.60506 4.49902 4.91706C4.33902 5.22906 4.12302 5.48106 3.85102 5.67306C3.57102 5.85706 3.21102 5.94906 2.77102 5.94906C2.37102 5.94906 2.00302 5.84506 1.66702 5.63706C1.33102 5.42906 1.05902 5.10506 0.85102 4.66506C0.64302 4.22506 0.53902 3.66106 0.53902 2.97306C0.53902 2.50906 0.60702 2.05306 0.74302 1.60506C0.87902 1.14906 1.06302 0.761062 1.29502 0.441062L1.78702 0.669062C1.54702 1.02106 1.37102 1.40106 1.25902 1.80906C1.13902 2.20906 1.07902 2.59706 1.07902 2.97306C1.07902 3.50906 1.15502 3.95306 1.30702 4.30506C1.45902 4.65706 1.66302 4.91706 1.91902 5.08506C2.16702 5.25306 2.44702 5.33706 2.75902 5.33706C3.11902 5.33706 3.40702 5.24506 3.62302 5.06106C3.83902 4.86906 4.01102 4.61706 4.13902 4.30506C4.26702 3.99306 4.37502 3.64906 4.46302 3.27306C4.55102 2.89706 4.64702 2.52506 4.75102 2.15706C4.84702 1.78906 4.97502 1.44906 5.13502 1.13706C5.29502 0.825062 5.51102 0.573062 5.78302 0.381062C6.05502 0.189062 6.40702 0.0930618 6.83902 0.0930618C7.23102 0.0930618 7.59902 0.201062 7.94302 0.417062C8.27902 0.633062 8.55102 0.965062 8.75902 1.41306C8.95902 1.85306 9.05902 2.42106 9.05902 3.11706Z" fill="#242424"/>
</svg>
