<svg width="25" height="24" viewBox="0 0 25 24" fill="none" xmlns="http://www.w3.org/2000/svg">
<mask id="mask0_2257_9584" style="mask-type:alpha" maskUnits="userSpaceOnUse" x="0" y="0" width="25" height="25">
<rect x="0.0957031" y="0.0078125" width="24" height="24" fill="#D9D9D9"/>
</mask>
<g mask="url(#mask0_2257_9584)">
<path d="M17.4228 11.3316C17.84 11.3316 18.1783 11.6699 18.1783 12.0871C18.1783 12.5044 17.84 12.8426 17.4228 12.8426L5.44301 12.8426C5.02575 12.8426 4.6875 12.5044 4.6875 12.0871C4.6875 11.6699 5.02575 11.3316 5.44301 11.3316L17.4228 11.3316ZM14.4499 5.10254C14.7016 5.10254 14.9374 5.22588 15.0808 5.43267L19.2937 11.5041C19.5307 11.8457 19.5316 12.2983 19.296 12.6409L15.0813 18.7689C14.9376 18.9778 14.7003 19.1025 14.4468 19.1025C13.8309 19.1025 13.4643 18.4154 13.8072 17.9038L17.3414 12.6309C17.568 12.2928 17.5671 11.8512 17.3391 11.514L13.8138 6.30058C13.469 5.79062 13.8343 5.10254 14.4499 5.10254Z" fill="#242424"/>
</g>
</svg>
