<svg width="52" height="12" viewBox="0 0 52 12" fill="none" xmlns="http://www.w3.org/2000/svg">
<path d="M49.1696 5.10716C49.4974 5.10716 49.7632 5.37293 49.7632 5.70077C49.7632 6.02862 49.4974 6.29439 49.1696 6.29439H1.68932C1.36147 6.29439 1.0957 6.02862 1.0957 5.70077C1.0957 5.37293 1.36147 5.10716 1.68932 5.10716H49.1696ZM46.5124 0.212891C46.7105 0.212891 46.8975 0.30422 47.0193 0.460432L50.6184 5.07648C50.8993 5.4367 50.9003 5.94145 50.621 6.30287L47.0225 10.9589C46.8987 11.1191 46.7077 11.2129 46.5053 11.2129C45.966 11.2129 45.6587 10.5967 45.9832 10.1659L48.9017 6.29095C49.1702 5.93442 49.1699 5.4431 48.901 5.08685L45.9994 1.24292C45.6797 0.819434 45.9818 0.212891 46.5124 0.212891Z" fill="#242424" stroke="#242424" stroke-width="0.3"/>
</svg>
