<svg width="25" height="24" viewBox="0 0 25 24" fill="none" xmlns="http://www.w3.org/2000/svg">
<mask id="mask0_3656_1817" style="mask-type:alpha" maskUnits="userSpaceOnUse" x="0" y="0" width="25" height="24">
<rect x="24.2949" width="24" height="23.998" transform="rotate(90 24.2949 0)" fill="#D9D9D9"/>
</mask>
<g mask="url(#mask0_3656_1817)">
<path d="M12.9721 17.328C12.9721 17.7452 12.6339 18.0834 12.2167 18.0834C11.7995 18.0834 11.4612 17.7452 11.4612 17.328L11.4612 5.3481C11.4612 4.93088 11.7995 4.59265 12.2167 4.59265C12.6339 4.59265 12.9721 4.93087 12.9721 5.34809L12.9721 17.328ZM19.2007 14.3551C19.2007 14.6068 19.0774 14.8425 18.8706 14.986L12.7997 19.1988C12.4581 19.4358 12.0055 19.4368 11.6629 19.2011L5.53548 14.9864C5.32662 14.8427 5.20186 14.6055 5.20186 14.352C5.20186 13.7361 5.88901 13.3695 6.40058 13.7124L11.6728 17.2465C12.0109 17.4731 12.4527 17.4722 12.7898 17.2442L18.0027 13.719C18.5126 13.3742 19.2007 13.7395 19.2007 14.3551Z" fill="#242424"/>
</g>
</svg>
