<svg width="25" height="24" viewBox="0 0 25 24" fill="none" xmlns="http://www.w3.org/2000/svg">
<mask id="mask0_3719_2851" style="mask-type:alpha" maskUnits="userSpaceOnUse" x="0" y="0" width="25" height="24">
<rect x="0.96875" width="24" height="24" fill="#D9D9D9"/>
</mask>
<g mask="url(#mask0_3719_2851)">
<path d="M19.6267 11.3242C20.0439 11.3242 20.3822 11.6625 20.3822 12.0797C20.3822 12.497 20.0439 12.8352 19.6267 12.8352L6.31801 12.8352C5.90075 12.8352 5.5625 12.497 5.5625 12.0797C5.5625 11.6625 5.90075 11.3242 6.31801 11.3242L19.6267 11.3242Z" fill="#242424"/>
<path d="M12.2188 5.42507C12.2188 5.00781 12.557 4.66956 12.9743 4.66956C13.3915 4.66956 13.7298 5.00781 13.7298 5.42507L13.7298 18.7338C13.7298 19.151 13.3915 19.4893 12.9743 19.4893C12.557 19.4893 12.2188 19.151 12.2188 18.7338L12.2188 5.42507Z" fill="#242424"/>
</g>
</svg>
